<svg width="24" height="24" viewBox="0 0 24 24" fill="none" xmlns="http://www.w3.org/2000/svg">
<path fill-rule="evenodd" clip-rule="evenodd" d="M12.0016 3.59998C12.6643 3.59998 13.2016 4.13723 13.2016 4.79998V10.8H19.2016C19.8643 10.8 20.4016 11.3372 20.4016 12C20.4016 12.6627 19.8643 13.2 19.2016 13.2H13.2016V19.2C13.2016 19.8627 12.6643 20.4 12.0016 20.4C11.3388 20.4 10.8016 19.8627 10.8016 19.2V13.2H4.80156C4.13882 13.2 3.60156 12.6627 3.60156 12C3.60156 11.3372 4.13882 10.8 4.80156 10.8L10.8016 10.8V4.79998C10.8016 4.13723 11.3388 3.59998 12.0016 3.59998Z" fill="#757575"/>
</svg>
