<svg width="20" height="20" viewBox="0 0 20 20" fill="none" xmlns="http://www.w3.org/2000/svg">
<g clip-path="url(#clip0_10_16281)">
<path d="M20 5.89875C20 10.0807 20 14.2578 20 18.4397C19.9902 18.4691 19.9756 18.4984 19.9707 18.5326C19.8973 18.968 19.687 19.3201 19.3544 19.6038C19.0903 19.8288 18.7723 19.9266 18.4397 20.0049C12.8149 20.0049 7.19005 20.0049 1.57009 20.0049C1.56031 20 1.55053 19.9853 1.53586 19.9853C0.626098 19.8533 -0.00486293 19.0805 2.82386e-05 18.0924C0.0147018 14.1012 0.00491941 10.1149 0.00491941 6.12374C0.00491941 6.05038 0.00491941 5.97212 0.00491941 5.89386C6.69115 5.89875 13.348 5.89875 20 5.89875ZM5.90367 16.4832C5.71292 16.4832 5.54173 16.4832 5.37543 16.4832C4.99391 16.4881 4.73468 16.7278 4.73468 17.0702C4.73468 17.4126 4.99881 17.6522 5.38032 17.6522C8.46665 17.6522 11.5481 17.6522 14.6344 17.6522C15.0159 17.6522 15.28 17.4077 15.2752 17.0653C15.2752 16.7229 15.011 16.4832 14.6295 16.4784C14.4583 16.4784 14.2822 16.4784 14.1013 16.4784C14.1013 15.911 14.1013 15.3681 14.1013 14.83C14.0964 13.7148 13.3529 12.9665 12.2426 12.9616C11.7535 12.9616 11.2644 12.9616 10.7802 12.9616C10.7166 12.9616 10.6579 12.9616 10.5894 12.9616C10.5894 12.5752 10.5992 12.2133 10.5845 11.8562C10.5796 11.6997 10.6237 11.6165 10.7704 11.5481C11.6704 11.1225 12.0225 10.0122 11.5334 9.14649C11.2106 8.57422 10.8829 8.00685 10.5552 7.43458C10.2813 6.96014 9.72368 6.96014 9.44977 7.43458C9.2101 7.85033 8.97044 8.27097 8.73566 8.68672C8.60849 8.90682 8.46665 9.12203 8.37371 9.35192C8.02644 10.1981 8.4373 11.1812 9.28347 11.5823C9.33728 11.6067 9.41553 11.6703 9.41553 11.7144C9.42532 12.1203 9.42043 12.5312 9.42043 12.9518C8.85305 12.9518 8.30524 12.9323 7.76232 12.9616C7.47863 12.9763 7.17049 13.0203 6.91614 13.1377C6.23627 13.4507 5.91835 14.023 5.90856 14.7616C5.89389 15.3387 5.90367 15.8963 5.90367 16.4832Z" fill="#5B5B5B"/>
<path d="M19.9999 2.73414C19.9999 3.39934 19.9999 4.06454 19.9999 4.72485C13.3381 4.72485 6.67635 4.72485 0.0145741 4.72485C0.0145741 4.06943 -0.0245553 3.43847 0.0243564 2.8124C0.0928328 1.82927 0.8314 1.18364 1.81942 1.16897C1.99061 1.16897 2.16669 1.16897 2.34766 1.16897C2.34766 0.978211 2.34766 0.816802 2.34766 0.655393C2.35255 0.2641 2.59222 -0.00491466 2.93949 -2.34911e-05C3.28677 0.00486768 3.51665 0.268991 3.52154 0.665176C3.52154 0.831476 3.52154 0.997776 3.52154 1.15918C4.33348 1.15918 5.11118 1.15918 5.90354 1.15918C5.90354 0.978211 5.90354 0.811911 5.90354 0.645611C5.90844 0.2641 6.1481 -2.34911e-05 6.48559 -2.34911e-05C6.82798 -2.34911e-05 7.06764 0.2641 7.07254 0.64072C7.07254 0.811911 7.07254 0.987993 7.07254 1.15918C7.8649 1.15918 8.63282 1.15918 9.41541 1.15918C9.41541 0.968428 9.41051 0.787455 9.41541 0.611373C9.42519 0.259209 9.66486 0.00486768 9.99256 -2.34911e-05C10.3252 -0.00491466 10.5795 0.254317 10.5844 0.616264C10.5893 0.797237 10.5844 0.978211 10.5844 1.15429C11.3768 1.15429 12.1496 1.15429 12.9273 1.15429C12.9273 0.963537 12.9224 0.792346 12.9273 0.616264C12.9322 0.254317 13.1865 -0.00491466 13.5191 -2.34911e-05C13.8468 0.00486768 14.0914 0.259209 14.0963 0.611373C14.1011 0.792346 14.0963 0.97332 14.0963 1.15918C14.8984 1.15918 15.681 1.15918 16.4783 1.15918C16.4783 0.978211 16.4783 0.811911 16.4783 0.64072C16.4831 0.259209 16.7228 -2.34911e-05 17.0652 -2.34911e-05C17.4076 -2.34911e-05 17.6472 0.2641 17.6472 0.645611C17.6472 0.816802 17.6472 0.992884 17.6472 1.17386C17.8527 1.17386 18.0288 1.16897 18.2 1.17386C18.7967 1.18853 19.3054 1.40374 19.638 1.90264C19.814 2.1472 19.8874 2.45534 19.9999 2.73414Z" fill="#5B5B5B"/>
<path d="M12.9272 16.4734C10.9659 16.4734 9.03385 16.4734 7.07249 16.4734C7.07249 16.1311 7.07249 15.7936 7.07249 15.461C7.07249 15.2262 7.0676 14.9914 7.07249 14.7566C7.07738 14.3849 7.31704 14.1404 7.68388 14.1404C9.22949 14.1355 10.78 14.1355 12.3256 14.1404C12.6533 14.1404 12.9125 14.3605 12.9223 14.6686C12.9419 15.2653 12.9272 15.862 12.9272 16.4734Z" fill="#5B5B5B"/>
<path d="M10.0074 8.83344C10.1932 9.15625 10.3644 9.43994 10.5209 9.73341C10.6579 9.99264 10.5845 10.291 10.3546 10.4622C10.1394 10.6285 9.83618 10.6187 9.63565 10.4475C9.43022 10.2714 9.37152 9.94373 9.50847 9.70406C9.66499 9.42527 9.8264 9.14647 10.0074 8.83344Z" fill="#5B5B5B"/>
</g>
<defs>
<clipPath id="clip0_10_16281">
<rect width="20" height="20" fill="white"/>
</clipPath>
</defs>
</svg>
