<svg width="24" height="24" viewBox="0 0 24 24" fill="none" xmlns="http://www.w3.org/2000/svg">
<path fill-rule="evenodd" clip-rule="evenodd" d="M4.79844 5.99998C3.47295 5.99998 2.39844 7.07449 2.39844 8.39998V18C2.39844 19.3255 3.47295 20.4 4.79844 20.4H19.1984C20.5239 20.4 21.5984 19.3255 21.5984 18V8.39998C21.5984 7.07449 20.5239 5.99998 19.1984 5.99998H17.2955C16.9772 5.99998 16.672 5.87355 16.447 5.6485L15.1014 4.30292C14.6513 3.85283 14.0408 3.59998 13.4043 3.59998H10.5926C9.95603 3.59998 9.34558 3.85283 8.89549 4.30292L7.54991 5.6485C7.32487 5.87355 7.01964 5.99998 6.70138 5.99998H4.79844ZM11.9984 16.8C13.9867 16.8 15.5984 15.1882 15.5984 13.2C15.5984 11.2118 13.9867 9.59998 11.9984 9.59998C10.0102 9.59998 8.39844 11.2118 8.39844 13.2C8.39844 15.1882 10.0102 16.8 11.9984 16.8Z" fill="#757575"/>
</svg>
