<svg width="24" height="24" viewBox="0 0 24 24" fill="none" xmlns="http://www.w3.org/2000/svg">
<path fill-rule="evenodd" clip-rule="evenodd" d="M11.9984 21.6004C17.3004 21.6004 21.5984 17.3023 21.5984 12.0004C21.5984 6.69846 17.3004 2.40039 11.9984 2.40039C6.6965 2.40039 2.39844 6.69846 2.39844 12.0004C2.39844 17.3023 6.6965 21.6004 11.9984 21.6004ZM10.447 8.75186C9.97834 8.28323 9.21854 8.28323 8.74991 8.75186C8.28128 9.22049 8.28128 9.98029 8.74991 10.4489L10.3014 12.0004L8.74991 13.5519C8.28128 14.0205 8.28128 14.7803 8.74991 15.2489C9.21854 15.7175 9.97834 15.7175 10.447 15.2489L11.9984 13.6974L13.5499 15.2489C14.0185 15.7175 14.7783 15.7175 15.247 15.2489C15.7156 14.7803 15.7156 14.0205 15.247 13.5519L13.6955 12.0004L15.247 10.4489C15.7156 9.98029 15.7156 9.22049 15.247 8.75186C14.7783 8.28323 14.0185 8.28323 13.5499 8.75186L11.9984 10.3033L10.447 8.75186Z" fill="#757575"/>
</svg>
