<svg width="20" height="14" viewBox="0 0 20 14" fill="none" xmlns="http://www.w3.org/2000/svg">
<g clip-path="url(#clip0_10_16256)">
<path d="M20 1.51391C19.9462 1.34841 19.8924 1.18777 19.8239 0.973579C17.8136 3.01809 15.8327 5.03338 13.8958 7C15.8229 8.95689 17.8136 10.9771 19.8239 13.0216C19.8924 12.8122 19.9462 12.6467 20 12.4812C20 8.82546 20 5.16968 20 1.51391Z" fill="#5B5B5B"/>
<path d="M19.0217 0.131436C18.7185 0.0827576 18.4739 0.00487161 18.2245 0.00487161C12.7415 3.73519e-06 7.26335 3.73519e-06 1.78035 0.00487161C1.5309 0.00487161 1.27656 0.0827575 0.978197 0.136304C1.06624 0.233662 1.11026 0.28234 1.15428 0.326151C3.65856 2.80877 6.16773 5.29138 8.67201 7.76913C9.21004 8.30459 9.84589 8.51391 10.5747 8.25105C10.8339 8.15856 11.0882 7.98818 11.2888 7.79347C13.8273 5.29625 16.3511 2.78929 18.8799 0.287208C18.9141 0.253133 18.9435 0.219058 19.0217 0.131436Z" fill="#5B5B5B"/>
<path d="M18.9043 13.8588C16.9283 11.8533 14.9424 9.83797 12.942 7.80807C12.6534 8.09527 12.3941 8.35814 12.13 8.61613C11.7289 9.02017 11.2594 9.31711 10.6969 9.44367C9.61596 9.68707 8.67686 9.4096 7.88449 8.64047C7.61547 8.37761 7.35135 8.10988 7.06277 7.82267C5.06717 9.85257 3.08136 11.8679 1.09065 13.888C1.29119 13.9172 1.5602 13.9903 1.82922 13.9903C3.21342 14 4.60251 13.9951 5.98671 13.9951C10.0268 13.9951 14.0718 13.9951 18.1119 13.9951C18.4201 14 18.7038 13.9611 18.9043 13.8588Z" fill="#5B5B5B"/>
<path d="M0.195696 0.983315C0.0440702 1.27539 4.95911e-05 1.54312 4.95911e-05 1.82546C4.95911e-05 3.4708 4.95911e-05 5.11614 4.95911e-05 6.76148C4.95911e-05 8.55772 4.95911e-05 10.3491 4.95911e-05 12.1453C4.95911e-05 12.4325 0.0391788 12.71 0.190805 13.007C2.19129 10.9771 4.17711 8.96176 6.11401 6.99514C4.182 5.03338 2.19619 3.01808 0.195696 0.983315Z" fill="#5B5B5B"/>
</g>
<defs>
<clipPath id="clip0_10_16256">
<rect width="20" height="14" fill="white" transform="matrix(-1 0 0 1 20 0)"/>
</clipPath>
</defs>
</svg>
