<svg width="24" height="24" viewBox="0 0 24 24" fill="none" xmlns="http://www.w3.org/2000/svg">
<path fill-rule="evenodd" clip-rule="evenodd" d="M11.9984 21.6004C17.3004 21.6004 21.5984 17.3023 21.5984 12.0004C21.5984 6.69846 17.3004 2.40039 11.9984 2.40039C6.6965 2.40039 2.39844 6.69846 2.39844 12.0004C2.39844 17.3023 6.6965 21.6004 11.9984 21.6004ZM8.39844 10.8004C9.06118 10.8004 9.59844 10.2631 9.59844 9.60039C9.59844 8.93765 9.06118 8.40039 8.39844 8.40039C7.7357 8.40039 7.19844 8.93765 7.19844 9.60039C7.19844 10.2631 7.7357 10.8004 8.39844 10.8004ZM16.7984 9.60039C16.7984 10.2631 16.2612 10.8004 15.5984 10.8004C14.9357 10.8004 14.3984 10.2631 14.3984 9.60039C14.3984 8.93765 14.9357 8.40039 15.5984 8.40039C16.2612 8.40039 16.7984 8.93765 16.7984 9.60039ZM16.2411 16.2429C16.7097 15.7743 16.7097 15.0145 16.2411 14.5459C15.7725 14.0772 15.0127 14.0772 14.544 14.5459C13.1381 15.9518 10.8587 15.9518 9.45285 14.5459C8.98422 14.0772 8.22443 14.0772 7.7558 14.5459C7.28717 15.0145 7.28717 15.7743 7.7558 16.2429C10.0989 18.5861 13.8979 18.5861 16.2411 16.2429Z" fill="#757575"/>
</svg>
