<svg width="16" height="17" viewBox="0 0 16 17" fill="none" xmlns="http://www.w3.org/2000/svg">
<path d="M14.5369 6.86344H13.9999V6.83577H7.99992V9.50244H11.7676C11.2179 11.0548 9.74092 12.1691 7.99992 12.1691C5.79092 12.1691 3.99992 10.3781 3.99992 8.16911C3.99992 5.96011 5.79092 4.16911 7.99992 4.16911C9.01958 4.16911 9.94725 4.55377 10.6536 5.18211L12.5393 3.29644C11.3486 2.18677 9.75592 1.50244 7.99992 1.50244C4.31825 1.50244 1.33325 4.48744 1.33325 8.16911C1.33325 11.8508 4.31825 14.8358 7.99992 14.8358C11.6816 14.8358 14.6666 11.8508 14.6666 8.16911C14.6666 7.72211 14.6206 7.28577 14.5369 6.86344Z" fill="#FFC107"/>
<path d="M2.10205 5.06611L4.29238 6.67244C4.88505 5.20511 6.32038 4.16911 8.00005 4.16911C9.01972 4.16911 9.94738 4.55377 10.6537 5.18211L12.5394 3.29644C11.3487 2.18677 9.75605 1.50244 8.00005 1.50244C5.43938 1.50244 3.21872 2.94811 2.10205 5.06611Z" fill="#FF3D00"/>
<path d="M7.99994 14.8358C9.72194 14.8358 11.2866 14.1768 12.4696 13.1052L10.4063 11.3592C9.71446 11.8853 8.86909 12.1699 7.99994 12.1692C6.26594 12.1692 4.79361 11.0635 4.23894 9.52051L2.06494 11.1955C3.16827 13.3545 5.40894 14.8358 7.99994 14.8358Z" fill="#4CAF50"/>
<path d="M14.537 6.86312H14V6.83545H8V9.50212H11.7677C11.5047 10.2409 11.0311 10.8865 10.4053 11.3591L10.4063 11.3584L12.4697 13.1044C12.3237 13.2371 14.6667 11.5021 14.6667 8.16878C14.6667 7.72178 14.6207 7.28545 14.537 6.86312Z" fill="#1976D2"/>
</svg>
