<svg width="24" height="24" viewBox="0 0 24 24" fill="none" xmlns="http://www.w3.org/2000/svg">
<path d="M10.7992 7.19961C10.7992 9.18783 9.18744 10.7996 7.19922 10.7996C5.21099 10.7996 3.59922 9.18783 3.59922 7.19961C3.59922 5.21138 5.21099 3.59961 7.19922 3.59961C9.18744 3.59961 10.7992 5.21138 10.7992 7.19961Z" fill="#757575"/>
<path d="M20.3992 7.19961C20.3992 9.18783 18.7874 10.7996 16.7992 10.7996C14.811 10.7996 13.1992 9.18783 13.1992 7.19961C13.1992 5.21138 14.811 3.59961 16.7992 3.59961C18.7874 3.59961 20.3992 5.21138 20.3992 7.19961Z" fill="#757575"/>
<path d="M15.5142 20.3996C15.5702 20.0077 15.5992 19.607 15.5992 19.1996C15.5992 17.2374 14.9264 15.4323 13.7989 14.0025C14.6815 13.4919 15.7062 13.1996 16.7992 13.1996C20.113 13.1996 22.7992 15.8859 22.7992 19.1996V20.3996H15.5142Z" fill="#757575"/>
<path d="M7.19922 13.1996C10.5129 13.1996 13.1992 15.8859 13.1992 19.1996V20.3996H1.19922V19.1996C1.19922 15.8859 3.88551 13.1996 7.19922 13.1996Z" fill="#757575"/>
</svg>
