<svg width="21" height="28" viewBox="0 0 21 28" fill="none" xmlns="http://www.w3.org/2000/svg">
<path d="M0.0261785 28C0.0196058 27.9674 0.00646021 27.9282 0.00646021 27.8956C0.013033 26.199 -0.0198309 24.5025 0.0393241 22.8124C0.0787607 21.7096 0.584864 20.7439 1.24214 19.863C2.17547 18.6101 3.37829 17.7031 4.85059 17.0767C4.92947 17.1941 5.00834 17.2985 5.08064 17.4095C5.69848 18.4144 6.50693 19.1974 7.59144 19.7129C8.51163 20.1501 9.39238 20.6525 10.2863 21.1354C10.444 21.2202 10.5623 21.2202 10.7201 21.1354C11.6534 20.633 12.5867 20.1109 13.5398 19.6477C14.5323 19.1648 15.275 18.4405 15.8534 17.5269C15.9454 17.3834 16.044 17.2398 16.1426 17.0832C16.8459 17.3508 17.4769 17.7162 18.0619 18.1599C19.2844 19.0865 20.244 20.2219 20.7304 21.6901C20.8947 22.186 20.9802 22.7211 20.9933 23.2431C21.0262 24.7635 21.0065 26.2904 21.0065 27.8108C21.0065 27.876 20.9933 27.9348 20.9802 28C13.9867 28 7.00646 28 0.0261785 28Z" fill="#5B5B5B"/>
<path d="M2.52397 9.99022C2.5174 7.04732 3.26669 4.42415 5.2911 2.27733C6.85542 0.613384 8.79439 -0.221853 11.1212 0.0522088C12.508 0.215341 13.7174 0.815667 14.7559 1.73573C16.6291 3.40621 17.6085 5.53997 17.9503 7.98043C18.1869 9.69006 18.108 11.3997 17.7728 13.0897C17.6611 13.6379 17.4704 14.1795 17.2273 14.6884C16.7606 15.6803 15.9061 16.2219 14.8282 16.2741C13.7305 16.3263 12.6329 16.2349 11.5287 16.2153C11.3315 16.2088 11.1277 16.2349 10.9305 16.2349C10.5296 16.2414 10.1287 16.2284 9.72772 16.2414C9.13618 16.261 8.54463 16.3067 7.9465 16.3197C7.10519 16.3393 6.2573 16.4046 5.42256 16.3393C4.46951 16.261 3.79251 15.6868 3.35871 14.845C2.85918 13.8728 2.71458 12.8222 2.62256 11.7586C2.56998 11.1452 2.55026 10.5318 2.52397 9.99022ZM4.2066 6.61665C4.10143 6.74715 3.97655 6.85808 3.91082 6.99511C3.66763 7.51714 3.71364 8.04568 3.93711 8.55466C4.14744 9.031 4.46294 9.40294 5.04791 9.46167C5.12021 9.4682 5.21223 9.58565 5.2451 9.67048C5.51458 10.3491 5.73148 11.0473 6.0404 11.7064C6.5465 12.7896 7.23664 13.7553 8.19627 14.5057C9.06387 15.1843 10.0169 15.5237 11.1212 15.1974C12.1202 14.8972 12.8498 14.2251 13.4873 13.4421C14.3812 12.3393 14.9531 11.0734 15.3474 9.72268C15.4 9.5465 15.4789 9.48125 15.6695 9.42904C15.9193 9.35727 16.1888 9.22676 16.3662 9.03753C16.8132 8.54813 16.9446 7.94128 16.8132 7.3018C16.7737 7.09952 16.6489 6.89071 16.5174 6.72758C16.3202 6.49267 16.169 6.53182 15.9653 6.7602C15.6892 7.07342 15.4 7.3801 15.078 7.64764C14.8282 7.85645 14.631 7.78467 14.4864 7.49103C14.3878 7.29528 14.3089 7.09299 14.2301 6.88418C13.9803 6.23818 13.6977 5.60523 13.2573 5.0571C12.6592 4.30017 11.8836 3.7912 10.9963 3.41273C10.9503 3.51061 10.9174 3.58239 10.8845 3.66069C10.8582 3.73247 10.8319 3.81077 10.8057 3.8956C12.0085 4.61991 12.7183 5.66395 12.9418 7.02774C12.8695 6.93638 12.8104 6.83851 12.7512 6.74063C12.2385 5.85971 11.4958 5.25939 10.5099 4.95922C10.2667 4.88744 10.1155 4.92007 9.94463 5.12236C9.16247 6.06852 8.18312 6.74715 7.0066 7.11257C6.03383 7.42578 5.04791 7.51061 4.2066 6.61665Z" fill="#5B5B5B"/>
</svg>
