<svg width="24" height="24" viewBox="0 0 24 24" fill="none" xmlns="http://www.w3.org/2000/svg">
  <path
    d="M17.9984 9.60002C19.9867 9.60002 21.5984 7.98825 21.5984 6.00002C21.5984 4.0118 19.9867 2.40002 17.9984 2.40002C16.0102 2.40002 14.3984 4.0118 14.3984 6.00002C14.3984 6.15061 14.4077 6.29903 14.4256 6.44475L8.49755 9.4088C7.85008 8.7842 6.96912 8.40002 5.99844 8.40002C4.01021 8.40002 2.39844 10.0118 2.39844 12C2.39844 13.9883 4.01021 15.6 5.99844 15.6C6.96914 15.6 7.85012 15.2158 8.49759 14.5912L14.4256 17.5552C14.4077 17.701 14.3984 17.8494 14.3984 18C14.3984 19.9883 16.0102 21.6 17.9984 21.6C19.9867 21.6 21.5984 19.9883 21.5984 18C21.5984 16.0118 19.9867 14.4 17.9984 14.4C17.0278 14.4 16.1468 14.7842 15.4993 15.4088L9.57124 12.4448C9.58919 12.299 9.59844 12.1506 9.59844 12C9.59844 11.8494 9.58919 11.701 9.57123 11.5552L15.4993 8.59121C16.1468 9.21583 17.0277 9.60002 17.9984 9.60002Z"
    fill="#0F52BA" />
</svg>