<?xml version="1.0" standalone="no"?>
<!DOCTYPE svg PUBLIC "-//W3C//DTD SVG 20010904//EN"
 "http://www.w3.org/TR/2001/REC-SVG-20010904/DTD/svg10.dtd">
<svg version="1.0" xmlns="http://www.w3.org/2000/svg"
 width="2000.000000pt" height="2000.000000pt" viewBox="0 0 2000.000000 2000.000000"
 preserveAspectRatio="xMidYMid meet">

<g transform="translate(0.000000,2000.000000) scale(0.100000,-0.100000)"
fill="#000000" stroke="none">
<path d="M4700 14470 c0 -19 5 -21 53 -18 38 2 52 7 52 18 0 11 -14 16 -52 18
-48 3 -53 1 -53 -18z"/>
<path d="M5352 14473 c3 -14 14 -18 53 -18 39 0 50 4 53 18 3 14 -5 17 -53 17
-48 0 -56 -3 -53 -17z"/>
<path d="M5592 14473 c3 -14 14 -18 53 -18 39 0 50 4 53 18 3 14 -5 17 -53 17
-48 0 -56 -3 -53 -17z"/>
<path d="M5832 14473 c3 -14 14 -18 53 -18 39 0 50 4 53 18 3 14 -5 17 -53 17
-48 0 -56 -3 -53 -17z"/>
<path d="M6072 14473 c3 -14 14 -18 53 -18 39 0 50 4 53 18 3 14 -5 17 -53 17
-48 0 -56 -3 -53 -17z"/>
<path d="M6312 14473 c3 -14 14 -18 53 -18 39 0 50 4 53 18 3 14 -5 17 -53 17
-48 0 -56 -3 -53 -17z"/>
<path d="M6552 14473 c3 -14 14 -18 53 -18 39 0 50 4 53 18 3 14 -5 17 -53 17
-48 0 -56 -3 -53 -17z"/>
<path d="M6792 14473 c3 -14 14 -18 53 -18 39 0 50 4 53 18 3 14 -5 17 -53 17
-48 0 -56 -3 -53 -17z"/>
<path d="M7032 14473 c3 -14 14 -18 53 -18 39 0 50 4 53 18 3 14 -5 17 -53 17
-48 0 -56 -3 -53 -17z"/>
<path d="M7272 14473 c3 -14 14 -18 53 -18 39 0 50 4 53 18 3 14 -5 17 -53 17
-48 0 -56 -3 -53 -17z"/>
<path d="M7512 14473 c3 -14 14 -18 53 -18 39 0 50 4 53 18 3 14 -5 17 -53 17
-48 0 -56 -3 -53 -17z"/>
<path d="M7752 14473 c3 -14 14 -18 53 -18 39 0 50 4 53 18 3 14 -5 17 -53 17
-48 0 -56 -3 -53 -17z"/>
<path d="M7992 14473 c3 -14 14 -18 53 -18 39 0 50 4 53 18 3 14 -5 17 -53 17
-48 0 -56 -3 -53 -17z"/>
<path d="M8232 14473 c3 -14 14 -18 53 -18 39 0 50 4 53 18 3 14 -5 17 -53 17
-48 0 -56 -3 -53 -17z"/>
<path d="M8472 14473 c3 -14 14 -18 53 -18 39 0 50 4 53 18 3 14 -5 17 -53 17
-48 0 -56 -3 -53 -17z"/>
<path d="M8712 14473 c3 -14 14 -18 53 -18 39 0 50 4 53 18 3 14 -5 17 -53 17
-48 0 -56 -3 -53 -17z"/>
<path d="M8952 14473 c3 -14 14 -18 53 -18 39 0 50 4 53 18 3 14 -5 17 -53 17
-48 0 -56 -3 -53 -17z"/>
<path d="M9192 14473 c3 -14 14 -18 53 -18 39 0 50 4 53 18 3 14 -5 17 -53 17
-48 0 -56 -3 -53 -17z"/>
<path d="M9432 14473 c3 -14 14 -18 53 -18 39 0 50 4 53 18 3 14 -5 17 -53 17
-48 0 -56 -3 -53 -17z"/>
<path d="M9672 14473 c3 -14 14 -18 53 -18 39 0 50 4 53 18 3 14 -5 17 -53 17
-48 0 -56 -3 -53 -17z"/>
<path d="M9912 14473 c2 -14 15 -19 56 -21 47 -3 52 -1 52 17 0 19 -6 21 -56
21 -47 0 -55 -3 -52 -17z"/>
<path d="M10152 14473 c2 -14 15 -19 56 -21 47 -3 52 -1 52 17 0 19 -6 21 -56
21 -47 0 -55 -3 -52 -17z"/>
<path d="M10392 14473 c2 -14 15 -19 56 -21 47 -3 52 -1 52 17 0 19 -6 21 -56
21 -47 0 -55 -3 -52 -17z"/>
<path d="M10632 14473 c2 -14 15 -19 56 -21 47 -3 52 -1 52 17 0 19 -6 21 -56
21 -47 0 -55 -3 -52 -17z"/>
<path d="M10872 14473 c2 -14 15 -19 56 -21 47 -3 52 -1 52 17 0 19 -6 21 -56
21 -47 0 -55 -3 -52 -17z"/>
<path d="M11112 14473 c2 -14 15 -19 56 -21 47 -3 52 -1 52 17 0 19 -6 21 -56
21 -47 0 -55 -3 -52 -17z"/>
<path d="M11352 14473 c2 -14 15 -19 56 -21 47 -3 52 -1 52 17 0 19 -6 21 -56
21 -47 0 -55 -3 -52 -17z"/>
<path d="M11592 14473 c2 -14 15 -19 56 -21 47 -3 52 -1 52 17 0 19 -6 21 -56
21 -47 0 -55 -3 -52 -17z"/>
<path d="M11832 14473 c3 -14 14 -18 53 -18 39 0 50 4 53 18 3 14 -5 17 -53
17 -48 0 -56 -3 -53 -17z"/>
<path d="M12072 14473 c3 -14 14 -18 53 -18 39 0 50 4 53 18 3 14 -5 17 -53
17 -48 0 -56 -3 -53 -17z"/>
<path d="M12312 14473 c3 -14 14 -18 53 -18 39 0 50 4 53 18 3 14 -5 17 -53
17 -48 0 -56 -3 -53 -17z"/>
<path d="M12552 14473 c3 -14 14 -18 53 -18 39 0 50 4 53 18 3 14 -5 17 -53
17 -48 0 -56 -3 -53 -17z"/>
<path d="M12792 14473 c3 -14 14 -18 53 -18 39 0 50 4 53 18 3 14 -5 17 -53
17 -48 0 -56 -3 -53 -17z"/>
<path d="M13032 14473 c3 -14 14 -18 53 -18 39 0 50 4 53 18 3 14 -5 17 -53
17 -48 0 -56 -3 -53 -17z"/>
<path d="M13272 14473 c3 -14 14 -18 53 -18 39 0 50 4 53 18 3 14 -5 17 -53
17 -48 0 -56 -3 -53 -17z"/>
<path d="M13512 14473 c3 -14 14 -18 53 -18 39 0 50 4 53 18 3 14 -5 17 -53
17 -48 0 -56 -3 -53 -17z"/>
<path d="M13752 14473 c2 -14 15 -19 56 -21 47 -3 52 -1 52 17 0 19 -6 21 -56
21 -47 0 -55 -3 -52 -17z"/>
<path d="M13992 14473 c2 -14 15 -19 56 -21 47 -3 52 -1 52 17 0 19 -6 21 -56
21 -47 0 -55 -3 -52 -17z"/>
<path d="M14232 14473 c2 -14 15 -19 56 -21 47 -3 52 -1 52 17 0 19 -6 21 -56
21 -47 0 -55 -3 -52 -17z"/>
<path d="M14472 14473 c2 -14 15 -19 56 -21 47 -3 52 -1 52 17 0 19 -6 21 -56
21 -47 0 -55 -3 -52 -17z"/>
<path d="M4508 14463 c-46 -13 -68 -43 -32 -43 33 0 94 23 94 36 0 21 -12 22
-62 7z"/>
<path d="M14711 14456 c-14 -17 -1 -28 51 -47 30 -10 41 -10 50 -1 15 15 5 24
-49 45 -34 13 -43 14 -52 3z"/>
<path d="M4287 14348 c-27 -24 -35 -37 -28 -47 7 -12 17 -8 50 18 41 32 54 61
28 61 -8 0 -30 -15 -50 -32z"/>
<path d="M14916 14341 c-8 -12 72 -83 84 -76 18 11 10 33 -21 59 -31 27 -54
33 -63 17z"/>
<path d="M4131 14166 c-22 -39 -23 -66 -2 -66 12 0 62 96 54 104 -15 14 -30 4
-52 -38z"/>
<path d="M15070 14160 c0 -16 44 -100 52 -100 18 0 20 33 3 71 -12 25 -25 39
-37 39 -10 0 -18 -4 -18 -10z"/>
<path d="M4066 13981 c-14 -22 -18 -98 -6 -106 19 -12 28 6 32 59 3 46 -11 72
-26 47z"/>
<path d="M15154 13940 c-16 -16 -2 -105 16 -105 10 0 16 12 18 40 3 44 -16 83
-34 65z"/>
<path d="M4057 13743 c-11 -11 -8 -101 4 -109 15 -9 29 15 29 53 0 51 -14 75
-33 56z"/>
<path d="M14955 13693 c-356 -44 -586 -104 -835 -217 -420 -191 -737 -447
-1026 -831 -119 -156 -273 -443 -339 -627 -26 -73 -29 -77 -49 -66 -11 6 -632
364 -1379 795 -746 431 -1363 786 -1371 789 -7 3 -687 -384 -1512 -860 l-1498
-865 -61 33 -60 34 -1365 -788 -1365 -789 -5 42 c-4 29 -10 43 -22 45 -16 3
-18 -5 -18 -55 l0 -58 -280 -160 -279 -160 -1 -97 0 -98 95 0 95 0 0 -1414 c0
-1198 2 -1415 14 -1419 21 -8 156 -9 3531 -8 l3150 1 0 227 c0 196 2 228 15
228 13 0 15 -32 15 -228 l0 -227 2122 0 2122 0 -15 -35 c-12 -29 -14 -255 -14
-1594 0 -1115 3 -1575 11 -1613 21 -96 78 -171 172 -220 41 -23 48 -23 387
-23 l345 0 63 34 c73 40 105 74 141 151 l26 55 0 1600 0 1601 -27 53 -28 53 0
736 0 737 125 32 c172 45 292 91 480 183 420 207 748 493 1005 878 252 378
393 787 432 1254 14 168 0 514 -27 693 -64 427 -233 832 -486 1170 -494 660
-1259 1041 -2079 1034 -96 -1 -188 -4 -205 -6z m525 -39 c472 -69 916 -260
1266 -544 193 -158 411 -403 549 -620 157 -245 282 -561 345 -869 163 -805
-94 -1673 -671 -2261 -475 -484 -1073 -748 -1735 -767 -215 -6 -351 5 -543 43
-392 80 -726 232 -1066 487 -44 33 -150 130 -235 216 -214 216 -327 368 -461
626 -137 263 -220 529 -265 850 -19 141 -22 474 -5 605 30 223 88 456 158 634
252 642 746 1150 1378 1419 218 93 467 159 705 186 52 6 111 13 130 15 66 8
345 -4 450 -20z m-2890 -2406 c0 -24 -3 -52 -6 -64 -4 -16 -143 -95 -542 -312
-295 -160 -558 -302 -584 -317 l-47 -26 -25 50 -26 50 83 45 c45 24 318 173
607 330 289 157 528 285 533 286 4 0 7 -19 7 -42z m-10 -316 c0 -276 80 -663
192 -924 24 -57 32 -93 37 -167 7 -102 24 -132 36 -60 l7 41 32 -53 c27 -48
32 -65 36 -149 l5 -95 55 -3 c54 -3 56 -4 93 -58 l38 -54 -84 0 c-51 0 -88 -5
-95 -12 -19 -19 -17 -471 2 -487 10 -8 112 -11 356 -11 l342 1 79 -53 c56 -37
74 -54 62 -57 -10 -2 -21 -8 -25 -15 -9 -13 -11 -448 -2 -470 5 -14 46 -16
355 -16 l349 0 0 106 c0 101 1 105 20 100 11 -3 29 -9 40 -12 19 -5 20 -14 20
-155 0 -126 2 -149 15 -149 13 0 15 23 15 146 l0 146 23 -6 c12 -3 82 -16 155
-28 l132 -21 0 -377 c0 -207 3 -512 7 -677 l6 -301 -52 -11 c-63 -13 -98 -31
-130 -65 l-24 -26 -1474 0 -1473 0 0 1803 1 1802 417 227 c229 124 420 226
425 227 4 1 7 -39 7 -87z m-1157 -222 c-17 -10 -50 -28 -73 -40 -33 -17 -40
-25 -35 -40 6 -20 -7 -20 -1109 -20 l-1116 0 0 60 0 60 1183 0 c1175 0 1182 0
1150 -20z m267 -90 c0 -5 -9 -10 -21 -10 -11 0 -17 5 -14 10 3 6 13 10 21 10
8 0 14 -4 14 -10z m957 -12 c-3 -8 -6 -5 -6 6 -1 11 2 17 5 13 3 -3 4 -12 1
-19z m76 -278 c140 -450 460 -910 846 -1220 181 -145 468 -310 687 -393 188
-72 458 -136 647 -153 42 -4 77 -10 77 -14 0 -5 -23 -27 -51 -51 l-52 -43
-116 17 c-513 75 -1013 330 -1396 711 -133 133 -208 222 -307 366 -180 260
-335 629 -392 930 -24 125 -18 127 14 5 15 -60 35 -130 43 -155z m-1038 -1605
l0 -1760 -97 -3 -98 -3 0 1153 c0 634 -4 1191 -10 1238 -18 172 -78 297 -200
421 -87 88 -178 142 -295 177 -111 33 -278 34 -380 2 -205 -65 -346 -185 -435
-372 -72 -148 -69 -102 -70 -1430 l0 -1188 -65 0 -65 0 0 1400 0 1399 93 3 92
3 2 95 3 95 -306 175 c-436 249 -394 218 -394 288 0 32 3 62 7 65 4 4 504 6
1112 5 l1106 -3 0 -1760z m5962 1653 c-3 -8 -6 -5 -6 6 -1 11 2 17 5 13 3 -3
4 -12 1 -19z m-32 -120 c-100 -347 -314 -725 -564 -993 -359 -385 -800 -642
-1302 -759 -174 -40 -186 -41 -194 -14 -4 13 -18 35 -32 49 l-25 27 74 12
c731 119 1354 523 1761 1142 108 165 242 443 288 596 7 23 14 40 17 38 2 -3
-8 -46 -23 -98z m-7495 -398 l0 -60 -3018 0 -3017 0 3 43 c1 23 -2 48 -7 56
-16 24 -31 1 -31 -50 l0 -49 -260 0 -260 0 0 60 0 60 3295 0 3295 0 0 -60z
m-6072 -260 c6 -68 42 -62 42 8 l0 32 2918 -2 2917 -3 3 -1337 2 -1338 -325 0
-325 0 0 1299 c0 1175 -2 1299 -16 1305 -24 9 -4867 7 -4881 -2 -10 -6 -13
-282 -15 -1303 l-3 -1294 -137 -3 c-138 -3 -138 -3 -138 20 -1 55 -34 62 -42
8 l-3 -25 -162 -3 -163 -2 0 1340 0 1340 163 -2 162 -3 3 -35z m892 -460 l0
-180 -177 2 -178 3 -3 165 c-1 90 0 170 2 177 4 10 47 13 181 13 l175 0 0
-180z m590 0 l0 -180 -175 0 -175 0 0 180 0 180 175 0 175 0 0 -180z m595 0
l0 -175 -177 -3 -178 -2 0 180 0 180 178 -2 177 -3 0 -175z m595 0 l0 -180
-180 0 -180 0 0 180 0 180 180 0 180 0 0 -180z m590 0 l0 -180 -180 0 -180 0
0 180 0 180 180 0 180 0 0 -180z m590 0 l0 -180 -177 2 -178 3 -3 165 c-1 90
0 170 2 177 4 10 47 13 181 13 l175 0 0 -180z m590 0 l0 -180 -175 0 -175 0 0
180 0 180 175 0 175 0 0 -180z m590 0 l0 -180 -175 0 -175 0 0 180 0 180 175
0 175 0 0 -180z m2055 -2 c3 -13 4 -513 3 -1113 -3 -1029 -4 -1090 -20 -1093
-17 -3 -18 53 -18 1076 0 594 -3 1087 -6 1096 -5 14 -45 16 -345 16 l-339 0
-2 -797 c-3 -702 -5 -798 -18 -798 -13 0 -15 97 -18 805 -1 443 0 811 3 818 3
9 89 12 379 12 l376 0 5 -22z m-6195 -578 l0 -180 -177 2 -178 3 -3 165 c-1
90 0 170 2 177 4 10 47 13 181 13 l175 0 0 -180z m590 0 l0 -180 -175 0 -175
0 0 180 0 180 175 0 175 0 0 -180z m595 0 l0 -175 -177 -3 -178 -2 0 180 0
180 178 -2 177 -3 0 -175z m595 0 l0 -180 -180 0 -180 0 0 180 0 180 180 0
180 0 0 -180z m590 0 l0 -180 -180 0 -180 0 0 180 0 180 180 0 180 0 0 -180z
m590 0 l0 -180 -177 2 -178 3 -3 165 c-1 90 0 170 2 177 4 10 47 13 181 13
l175 0 0 -180z m590 0 l0 -180 -175 0 -175 0 0 180 0 180 175 0 175 0 0 -180z
m590 0 l0 -180 -175 0 -175 0 0 180 0 180 175 0 175 0 0 -180z m6590 -829 l0
-719 -37 19 c-21 10 -42 19 -49 19 -8 0 -13 184 -18 686 -4 377 -5 688 -2 692
4 3 25 9 49 13 23 3 45 7 50 8 4 0 7 -323 7 -718z m-726 447 c3 -128 7 -432 9
-675 2 -400 0 -443 -14 -443 -24 0 -29 131 -29 782 0 478 2 568 14 568 11 0
15 -44 20 -232z m-10004 -198 l0 -180 -180 0 -180 0 0 173 c0 96 3 177 7 180
3 4 84 7 180 7 l173 0 0 -180z m590 0 l0 -180 -175 0 -175 0 0 180 0 180 175
0 175 0 0 -180z m598 -2 l2 -178 -180 0 -180 0 0 180 0 180 178 -2 177 -3 3
-177z m590 0 l2 -178 -180 0 -180 0 0 180 0 180 178 -2 177 -3 3 -177z m592 2
l0 -180 -180 0 -180 0 0 173 c0 96 3 177 7 180 3 4 84 7 180 7 l173 0 0 -180z
m590 0 l0 -180 -180 0 -180 0 0 173 c0 96 3 177 7 180 3 4 84 7 180 7 l173 0
0 -180z m590 0 l0 -180 -175 0 -175 0 0 180 0 180 175 0 175 0 0 -180z m590 0
l0 -180 -175 0 -175 0 0 180 0 180 175 0 175 0 0 -180z m-4140 -580 l0 -180
-180 0 -180 0 0 173 c0 96 3 177 7 180 3 4 84 7 180 7 l173 0 0 -180z m590 0
l0 -180 -175 0 -175 0 0 180 0 180 175 0 175 0 0 -180z m598 -2 l2 -178 -180
0 -180 0 0 180 0 180 178 -2 177 -3 3 -177z m590 0 l2 -178 -180 0 -180 0 0
180 0 180 178 -2 177 -3 3 -177z m592 2 l0 -180 -180 0 -180 0 0 173 c0 96 3
177 7 180 3 4 84 7 180 7 l173 0 0 -180z m590 0 l0 -180 -180 0 -180 0 0 173
c0 96 3 177 7 180 3 4 84 7 180 7 l173 0 0 -180z m590 0 l0 -180 -175 0 -175
0 0 180 0 180 175 0 175 0 0 -180z m590 0 l0 -180 -175 0 -175 0 0 180 0 180
175 0 175 0 0 -180z"/>
<path d="M15035 13199 c-744 -77 -1371 -526 -1690 -1212 -56 -121 -110 -282
-131 -387 -9 -47 -22 -95 -30 -106 -12 -20 -44 -130 -44 -153 0 -6 6 -8 13 -6
9 4 12 -56 12 -277 1 -308 13 -416 70 -613 50 -172 176 -406 312 -578 64 -81
79 -95 83 -78 4 18 12 13 58 -40 28 -33 52 -69 52 -79 0 -24 139 -150 166
-150 24 0 169 -107 152 -112 -13 -5 138 -93 247 -143 303 -140 709 -226 966
-203 343 29 682 146 964 333 369 244 665 612 805 1000 10 28 19 43 19 35 0
-18 -75 -222 -112 -302 -15 -32 -25 -58 -22 -58 8 0 74 126 118 225 99 224
130 412 130 770 0 332 -27 505 -120 760 -209 577 -626 1009 -1199 1239 -165
67 -369 115 -583 136 -113 11 -120 11 -236 -1z m420 -60 c731 -136 1321 -639
1565 -1333 17 -48 30 -90 28 -92 -2 -2 -24 45 -48 103 -180 430 -536 806 -969
1023 -286 143 -569 213 -861 213 -237 0 -454 -42 -695 -135 -506 -197 -928
-604 -1141 -1100 -20 -49 -39 -87 -41 -85 -1 2 10 41 26 88 183 536 631 999
1166 1207 169 65 365 114 535 132 110 12 309 3 435 -21z m5 -149 c430 -82 777
-267 1091 -580 413 -412 637 -1031 564 -1553 -104 -743 -595 -1361 -1294
-1631 -51 -20 -97 -36 -102 -36 -5 0 -9 300 -9 720 0 396 3 720 8 720 4 0 68
-34 142 -74 l135 -75 20 24 c36 44 80 134 70 144 -16 14 -2374 1291 -2385
1291 -6 0 -85 -40 -176 -90 -91 -49 -167 -90 -169 -90 -7 0 65 151 112 233
262 461 703 809 1201 949 108 30 276 64 352 72 95 9 337 -4 440 -24z m-1368
-1303 c216 -118 690 -375 1053 -572 363 -197 713 -387 777 -422 l118 -64 -26
-50 -25 -50 -32 19 c-18 11 -532 290 -1144 621 l-1112 602 -206 -112 c-113
-61 -209 -109 -212 -105 -3 3 5 36 18 73 l24 68 185 102 c102 56 186 102 187
102 1 1 178 -95 395 -212z m-825 -49 c-3 -8 -6 -5 -6 6 -1 11 2 17 5 13 3 -3
4 -12 1 -19z m1361 -509 c499 -271 937 -509 974 -528 l68 -36 0 -696 0 -696
-62 -17 c-93 -24 -209 -44 -330 -56 -114 -11 -240 -3 -408 25 -81 14 -278 66
-300 80 -7 4 -10 166 -10 486 l0 479 -562 2 -563 3 -42 84 c-83 166 -136 341
-174 571 -23 142 -24 279 -3 431 l17 116 231 126 c127 70 237 125 244 122 7
-2 421 -226 920 -496z m-1269 -883 c30 -66 34 -100 6 -63 -15 21 -95 241 -95
260 1 7 13 -19 29 -58 16 -38 42 -101 60 -139z m80 -151 c20 -34 20 -35 1 -35
-11 0 -26 12 -35 30 -19 36 -19 40 -1 40 8 0 23 -16 35 -35z m1091 -420 c0
-250 -2 -455 -4 -455 -2 0 -20 7 -39 15 l-36 15 -3 77 -3 78 -155 5 c-165 5
-164 5 -249 69 l-54 41 229 2 229 3 0 265 0 265 -339 3 c-242 2 -343 -1 -352
-9 -11 -9 -14 -46 -14 -158 l0 -146 -53 59 -52 60 -5 95 -5 96 -63 5 c-58 5
-65 8 -83 38 l-21 32 536 0 536 0 0 -455z"/>
<path d="M12815 9618 c-3 -7 -4 -465 -3 -1018 l3 -1005 864 -3 c637 -1 867 1
878 9 11 10 13 51 11 208 -3 177 -5 196 -20 199 -17 3 -18 -11 -18 -187 l0
-191 -839 0 c-756 0 -839 2 -845 16 -3 9 -6 456 -6 994 0 913 -3 1036 -25 978z"/>
<path d="M12925 8777 c-3 -7 -4 -118 -3 -247 l3 -235 353 -3 352 -2 -2 247 -3
248 -348 3 c-276 2 -349 0 -352 -11z"/>
<path d="M12925 8157 c-3 -7 -4 -109 -3 -227 l3 -215 353 -3 352 -2 -2 227 -3
228 -348 3 c-276 2 -349 0 -352 -11z"/>
<path d="M13746 8154 c-3 -9 -6 -105 -6 -214 0 -109 3 -205 6 -214 5 -14 46
-16 355 -16 l349 0 0 230 0 230 -349 0 c-309 0 -350 -2 -355 -16z"/>
<path d="M4057 9423 c-11 -11 -8 -101 4 -109 15 -9 29 15 29 53 0 51 -14 75
-33 56z"/>
<path d="M4057 9183 c-11 -11 -8 -101 4 -109 15 -9 29 15 29 53 0 51 -14 75
-33 56z"/>
<path d="M4057 8943 c-11 -11 -8 -101 4 -109 15 -9 29 15 29 53 0 51 -14 75
-33 56z"/>
<path d="M4057 8703 c-11 -11 -8 -101 4 -109 15 -9 29 15 29 53 0 51 -14 75
-33 56z"/>
<path d="M4057 8463 c-11 -11 -8 -101 4 -109 15 -9 29 15 29 53 0 51 -14 75
-33 56z"/>
<path d="M4057 8223 c-11 -11 -8 -101 4 -109 15 -9 29 15 29 53 0 51 -14 75
-33 56z"/>
<path d="M4057 7983 c-11 -11 -8 -101 4 -109 15 -9 29 15 29 53 0 51 -14 75
-33 56z"/>
<path d="M4057 7743 c-11 -11 -8 -101 4 -109 15 -9 29 15 29 53 0 51 -14 75
-33 56z"/>
<path d="M4057 7503 c-11 -11 -8 -101 4 -109 15 -9 29 15 29 53 0 51 -14 75
-33 56z"/>
<path d="M4057 7263 c-11 -11 -8 -101 4 -109 15 -9 29 15 29 53 0 51 -14 75
-33 56z"/>
<path d="M4057 13503 c-11 -11 -8 -101 4 -109 15 -9 29 15 29 53 0 51 -14 75
-33 56z"/>
<path d="M4057 13263 c-11 -11 -8 -101 4 -109 15 -9 29 15 29 53 0 51 -14 75
-33 56z"/>
<path d="M4057 13023 c-11 -11 -8 -101 4 -109 15 -9 29 15 29 53 0 51 -14 75
-33 56z"/>
<path d="M4057 12783 c-11 -11 -8 -101 4 -109 15 -9 29 15 29 53 0 51 -14 75
-33 56z"/>
<path d="M4050 12490 c0 -53 2 -61 18 -58 14 3 17 14 17 58 0 44 -3 55 -17 58
-16 3 -18 -5 -18 -58z"/>
<path d="M4050 12250 c0 -53 2 -61 18 -58 14 3 17 14 17 58 0 44 -3 55 -17 58
-16 3 -18 -5 -18 -58z"/>
<path d="M4050 12010 c0 -53 2 -61 18 -58 14 3 17 14 17 58 0 44 -3 55 -17 58
-16 3 -18 -5 -18 -58z"/>
<path d="M4050 11770 c0 -53 2 -61 18 -58 14 3 17 14 17 58 0 44 -3 55 -17 58
-16 3 -18 -5 -18 -58z"/>
<path d="M4050 11530 c0 -53 2 -61 18 -58 14 3 17 14 17 58 0 44 -3 55 -17 58
-16 3 -18 -5 -18 -58z"/>
<path d="M4050 11290 c0 -53 2 -61 18 -58 14 3 17 14 17 58 0 44 -3 55 -17 58
-16 3 -18 -5 -18 -58z"/>
<path d="M4050 11050 c0 -53 2 -61 18 -58 14 3 17 14 17 58 0 44 -3 55 -17 58
-16 3 -18 -5 -18 -58z"/>
<path d="M4050 10810 c0 -53 2 -61 18 -58 14 3 17 14 17 58 0 44 -3 55 -17 58
-16 3 -18 -5 -18 -58z"/>
<path d="M4050 10570 c0 -53 2 -61 18 -58 14 3 17 14 17 58 0 44 -3 55 -17 58
-16 3 -18 -5 -18 -58z"/>
<path d="M4050 6730 c0 -53 2 -61 18 -58 14 3 17 14 17 58 0 44 -3 55 -17 58
-16 3 -18 -5 -18 -58z"/>
<path d="M4050 6490 c0 -53 2 -61 18 -58 14 3 17 14 17 58 0 44 -3 55 -17 58
-16 3 -18 -5 -18 -58z"/>
<path d="M4050 6256 c0 -55 14 -81 31 -55 5 8 8 34 7 59 -2 33 -7 46 -20 48
-15 3 -18 -5 -18 -52z"/>
<path d="M4054 6056 c-3 -7 -4 -33 -2 -57 4 -55 31 -62 36 -10 6 61 -18 108
-34 67z"/>
<path d="M4090 5815 c0 -31 39 -95 55 -89 19 7 19 3 -5 58 -19 44 -50 63 -50
31z"/>
<path d="M4214 5619 c-7 -12 53 -79 72 -79 31 0 25 25 -12 57 -43 36 -49 38
-60 22z"/>
<path d="M4406 5475 c-4 -12 6 -21 40 -36 45 -20 74 -20 74 1 0 6 -15 17 -32
24 -63 26 -75 27 -82 11z"/>
<path d="M4640 5410 c0 -19 5 -21 53 -18 38 2 52 7 52 18 0 11 -14 16 -52 18
-48 3 -53 1 -53 -18z"/>
<path d="M4880 5410 c0 -19 5 -21 53 -18 38 2 52 7 52 18 0 11 -14 16 -52 18
-48 3 -53 1 -53 -18z"/>
<path d="M5120 5410 c0 -19 5 -21 53 -18 38 2 52 7 52 18 0 11 -14 16 -52 18
-48 3 -53 1 -53 -18z"/>
<path d="M5360 5410 c0 -19 5 -21 53 -18 38 2 52 7 52 18 0 11 -14 16 -52 18
-48 3 -53 1 -53 -18z"/>
<path d="M5600 5410 c0 -19 5 -21 53 -18 38 2 52 7 52 18 0 11 -14 16 -52 18
-48 3 -53 1 -53 -18z"/>
<path d="M5840 5410 c0 -19 5 -21 53 -18 38 2 52 7 52 18 0 11 -14 16 -52 18
-48 3 -53 1 -53 -18z"/>
<path d="M6080 5410 c0 -19 5 -21 53 -18 38 2 52 7 52 18 0 11 -14 16 -52 18
-48 3 -53 1 -53 -18z"/>
<path d="M6320 5410 c0 -19 5 -21 53 -18 38 2 52 7 52 18 0 11 -14 16 -52 18
-48 3 -53 1 -53 -18z"/>
<path d="M6560 5410 c0 -19 5 -21 53 -18 38 2 52 7 52 18 0 11 -14 16 -52 18
-48 3 -53 1 -53 -18z"/>
<path d="M6800 5410 c0 -19 5 -21 53 -18 38 2 52 7 52 18 0 11 -14 16 -52 18
-48 3 -53 1 -53 -18z"/>
<path d="M7040 5410 c0 -19 5 -21 53 -18 38 2 52 7 52 18 0 11 -14 16 -52 18
-48 3 -53 1 -53 -18z"/>
<path d="M7280 5410 c0 -19 5 -21 53 -18 38 2 52 7 52 18 0 11 -14 16 -52 18
-48 3 -53 1 -53 -18z"/>
<path d="M7520 5410 c0 -19 5 -21 53 -18 38 2 52 7 52 18 0 11 -14 16 -52 18
-48 3 -53 1 -53 -18z"/>
<path d="M7760 5410 c0 -19 5 -21 53 -18 38 2 52 7 52 18 0 11 -14 16 -52 18
-48 3 -53 1 -53 -18z"/>
<path d="M8000 5410 c0 -19 5 -21 53 -18 38 2 52 7 52 18 0 11 -14 16 -52 18
-48 3 -53 1 -53 -18z"/>
<path d="M8240 5410 c0 -19 5 -21 53 -18 38 2 52 7 52 18 0 11 -14 16 -52 18
-48 3 -53 1 -53 -18z"/>
<path d="M8480 5410 c0 -19 5 -21 53 -18 38 2 52 7 52 18 0 11 -14 16 -52 18
-48 3 -53 1 -53 -18z"/>
<path d="M8720 5410 c0 -19 5 -21 53 -18 38 2 52 7 52 18 0 11 -14 16 -52 18
-48 3 -53 1 -53 -18z"/>
<path d="M8960 5410 c0 -19 5 -21 53 -18 38 2 52 7 52 18 0 11 -14 16 -52 18
-48 3 -53 1 -53 -18z"/>
<path d="M9200 5410 c0 -19 5 -21 53 -18 38 2 52 7 52 18 0 11 -14 16 -52 18
-48 3 -53 1 -53 -18z"/>
<path d="M9440 5410 c0 -19 5 -21 53 -18 38 2 52 7 52 18 0 11 -14 16 -52 18
-48 3 -53 1 -53 -18z"/>
<path d="M9680 5410 c0 -19 5 -21 53 -18 38 2 52 7 52 18 0 11 -14 16 -52 18
-48 3 -53 1 -53 -18z"/>
<path d="M9920 5410 c0 -19 5 -21 53 -18 38 2 52 7 52 18 0 11 -14 16 -52 18
-48 3 -53 1 -53 -18z"/>
<path d="M10160 5410 c0 -18 7 -20 55 -20 48 0 55 2 55 20 0 18 -7 20 -55 20
-48 0 -55 -2 -55 -20z"/>
<path d="M10400 5410 c0 -18 7 -20 55 -20 48 0 55 2 55 20 0 18 -7 20 -55 20
-48 0 -55 -2 -55 -20z"/>
<path d="M10640 5410 c0 -18 7 -20 55 -20 48 0 55 2 55 20 0 18 -7 20 -55 20
-48 0 -55 -2 -55 -20z"/>
<path d="M10880 5410 c0 -18 7 -20 55 -20 48 0 55 2 55 20 0 18 -7 20 -55 20
-48 0 -55 -2 -55 -20z"/>
<path d="M11120 5410 c0 -18 7 -20 55 -20 48 0 55 2 55 20 0 18 -7 20 -55 20
-48 0 -55 -2 -55 -20z"/>
<path d="M11360 5410 c0 -18 7 -20 55 -20 48 0 55 2 55 20 0 18 -7 20 -55 20
-48 0 -55 -2 -55 -20z"/>
<path d="M11600 5410 c0 -18 7 -20 55 -20 48 0 55 2 55 20 0 18 -7 20 -55 20
-48 0 -55 -2 -55 -20z"/>
<path d="M11840 5410 c0 -18 7 -20 55 -20 48 0 55 2 55 20 0 18 -7 20 -55 20
-48 0 -55 -2 -55 -20z"/>
<path d="M12080 5410 c0 -18 7 -20 55 -20 48 0 55 2 55 20 0 18 -7 20 -55 20
-48 0 -55 -2 -55 -20z"/>
<path d="M12870 5410 c0 -19 5 -21 58 -18 43 2 57 7 57 18 0 11 -14 16 -57 18
-53 3 -58 1 -58 -18z"/>
<path d="M13110 5410 c0 -19 5 -21 58 -18 43 2 57 7 57 18 0 11 -14 16 -57 18
-53 3 -58 1 -58 -18z"/>
<path d="M13350 5410 c0 -19 5 -21 58 -18 43 2 57 7 57 18 0 11 -14 16 -57 18
-53 3 -58 1 -58 -18z"/>
<path d="M13590 5410 c0 -19 5 -21 58 -18 43 2 57 7 57 18 0 11 -14 16 -57 18
-53 3 -58 1 -58 -18z"/>
</g>
</svg>
