<svg width="34" height="34" viewBox="0 0 34 34" fill="none" xmlns="http://www.w3.org/2000/svg">
<rect width="33.7377" height="33.9936" rx="10" fill="#BCE7FF"/>
<path d="M23.7377 18.7794C23.337 20.2549 22.4752 21.6097 21.2635 22.542C20.0518 23.4744 18.568 23.9842 17.0391 23.9934C15.5103 24.0027 14.0204 23.5109 12.7975 22.5933C11.5746 21.6757 10.6859 20.3828 10.2673 18.9123C9.84875 17.4418 9.92335 15.8747 10.4797 14.4506C11.0361 13.0265 12.0436 11.8239 13.3482 11.0266C14.6527 10.2294 16.1826 9.88135 17.7036 10.0358C19.2247 10.1903 20.6533 10.8387 21.771 11.8819L20.3437 13.4111C19.5602 12.6797 18.5587 12.2251 17.4923 12.1168C16.426 12.0086 15.3535 12.2525 14.439 12.8115C13.5244 13.3704 12.8181 14.2135 12.428 15.2118C12.038 16.2102 11.9857 17.3088 12.2791 18.3396C12.5726 19.3705 13.1956 20.2769 14.0529 20.9202C14.9102 21.5635 15.9547 21.9082 17.0265 21.9017C18.0983 21.8952 19.1385 21.5379 19.9879 20.8842C20.8374 20.2306 21.3831 19.8138 21.6641 18.7794H23.7377Z" fill="#0F52BA"/>
<path d="M21.6641 18.7794H23.7377C23.7377 18.5202 23.7377 17.5169 23.7377 17.2576H20.8865H17.7761V18.7794H21.6641Z" fill="#0F52BA"/>
</svg>
