<svg width="152" height="15" viewBox="0 0 152 15" fill="none" xmlns="http://www.w3.org/2000/svg">
  <path
    d="M112.667 3.87962C111.276 7.13016 109.972 10.1746 108.64 13.2859C107.922 13.2859 107.193 13.2859 106.298 13.2859C106.649 12.4544 106.938 11.7404 107.248 11.0351C108.617 7.91812 110.01 4.8127 111.345 1.68261C111.624 1.0267 112.064 0.988972 112.635 1.00493C113.212 1.01945 113.771 0.891745 114.088 1.63182C115.709 5.40766 117.372 9.16464 119.015 12.9303C119.043 12.9956 119.008 13.0885 118.998 13.2438C118.824 13.2786 118.634 13.3512 118.442 13.3512C116.46 13.3453 116.898 13.5674 116.164 11.9174C115.204 9.75815 114.313 7.56695 113.385 5.39315C113.196 4.94475 112.971 4.51522 112.667 3.87962Z"
    fill="#0F52BA" />
  <path
    d="M92.8027 6.05249C92.8003 6.7934 92.7982 7.40717 92.7957 8.14661C89.0904 8.13423 85.4261 8.12198 81.6969 8.10951C81.6993 7.39198 81.7015 6.7446 81.7039 6.01539C85.3881 6.0277 89.0286 6.03987 92.8027 6.05249Z"
    fill="#0F52BA" />
  <path
    d="M84.1764 12.6771C84.2259 12.4609 84.2478 12.2001 84.245 11.8807C84.238 11.2056 84.2354 10.5284 84.2328 9.8533C84.2237 7.30637 84.2379 4.75945 84.2288 2.21252C84.2275 2.01038 84.2072 1.80824 84.1812 1.60407C84.0769 1.15528 83.8316 0.902497 83.2973 0.894181C82.7137 0.883823 82.4232 1.12424 82.3039 1.64772C82.2733 1.92059 82.25 2.16922 82.2499 2.4138C82.2467 3.09905 82.2478 3.78429 82.2475 4.46953C82.245 6.94975 82.2483 9.42998 82.2312 11.9102C82.2296 12.2296 82.2484 12.4984 82.3006 12.7208C82.4049 13.1696 82.6502 13.4224 83.1845 13.4307C83.7667 13.4431 84.0571 13.2006 84.1764 12.6771Z"
    fill="#0F52BA" />
  <path
    d="M92.1989 12.786C92.2483 12.5697 92.2702 12.309 92.2675 11.9896C92.2605 11.3145 92.2579 10.6373 92.2553 9.96219C92.2462 7.41526 92.2604 4.86834 92.2513 2.32141C92.2499 2.11927 92.2297 1.91712 92.2037 1.71295C92.0993 1.26416 91.8541 1.01138 91.3198 1.00307C90.7361 0.992709 90.4456 1.23312 90.3264 1.75661C90.2958 2.02948 90.2724 2.2781 90.2723 2.52269C90.2691 3.20793 90.2703 3.89318 90.27 4.57842C90.2675 7.05864 90.2707 9.53886 90.2537 12.0191C90.2521 12.3385 90.2709 12.6073 90.323 12.8297C90.4274 13.2785 90.6726 13.5312 91.2069 13.5396C91.7891 13.5519 92.0796 13.3095 92.1989 12.786Z"
    fill="#0F52BA" />
  <path
    d="M152 6.05249C151.998 6.7934 151.995 7.40717 151.993 8.14661C148.288 8.13423 144.623 8.12198 140.894 8.10951C140.897 7.39198 140.899 6.7446 140.901 6.01539C144.585 6.0277 148.226 6.03987 152 6.05249Z"
    fill="#0F52BA" />
  <path
    d="M143.374 12.6771C143.423 12.4609 143.445 12.2001 143.442 11.8807C143.435 11.2056 143.433 10.5284 143.43 9.8533C143.421 7.30637 143.435 4.75945 143.426 2.21252C143.425 2.01038 143.405 1.80824 143.378 1.60407C143.274 1.15528 143.029 0.902497 142.495 0.894181C141.911 0.883823 141.62 1.12424 141.501 1.64772C141.471 1.92059 141.447 2.16922 141.447 2.4138C141.444 3.09905 141.445 3.78429 141.445 4.46953C141.442 6.94975 141.446 9.42998 141.429 11.9102C141.427 12.2296 141.446 12.4984 141.498 12.7208C141.602 13.1696 141.847 13.4224 142.382 13.4307C142.964 13.4431 143.254 13.2006 143.374 12.6771Z"
    fill="#0F52BA" />
  <path
    d="M151.396 12.786C151.446 12.5697 151.467 12.309 151.465 11.9896C151.458 11.3145 151.455 10.6373 151.453 9.96219C151.443 7.41526 151.458 4.86834 151.449 2.32141C151.447 2.11927 151.427 1.91712 151.401 1.71295C151.297 1.26416 151.051 1.01138 150.517 1.00307C149.933 0.992709 149.643 1.23312 149.524 1.75661C149.493 2.02948 149.47 2.2781 149.47 2.52269C149.466 3.20793 149.468 3.89318 149.467 4.57842C149.465 7.05864 149.468 9.53886 149.451 12.0191C149.449 12.3385 149.468 12.6073 149.52 12.8297C149.625 13.2785 149.87 13.5312 150.404 13.5396C150.986 13.5519 151.277 13.3095 151.396 12.786Z"
    fill="#0F52BA" />
  <path
    d="M130.521 13.6566C127.534 13.6566 124.752 13.6566 121.841 13.6566C121.841 9.60943 121.841 5.5869 121.841 1.50342C122.557 1.50342 123.201 1.50342 123.992 1.50342C123.992 4.8773 123.992 8.17281 123.992 11.596C126.163 11.596 128.194 11.596 130.378 11.596C130.426 12.3071 130.467 12.8962 130.521 13.6566Z"
    fill="black" />
  <path
    d="M133.349 1.52832C134.09 1.52832 134.704 1.52832 135.444 1.52832C135.444 5.59439 135.444 9.61547 135.444 13.7077C134.726 13.7077 134.078 13.7077 133.349 13.7077C133.349 9.66481 133.349 5.66985 133.349 1.52832Z"
    fill="#0F52BA" />
  <path
    d="M138.386 1.57188C138.23 1.52254 138.041 1.50077 137.81 1.50367C137.322 1.51093 136.832 1.51383 136.344 1.51673C134.501 1.52689 132.659 1.51383 130.817 1.52399C130.671 1.52544 130.524 1.54576 130.377 1.57188C130.052 1.67636 129.869 1.9216 129.864 2.45561C129.856 3.03897 130.03 3.32919 130.409 3.44818C130.606 3.47866 130.786 3.50188 130.963 3.50188C131.459 3.50478 131.954 3.50333 132.45 3.50333C134.244 3.50478 136.038 3.50042 137.832 3.51639C138.063 3.51784 138.257 3.49897 138.418 3.44673C138.743 3.34225 138.926 3.09701 138.932 2.563C138.94 1.98109 138.765 1.69087 138.386 1.57188Z"
    fill="#0F52BA" />
  <path
    d="M103.612 6.01605C103.612 6.75613 103.612 7.31772 103.612 8.0549C101.634 8.0549 99.6953 8.0549 97.6762 8.0549C97.6762 9.15776 97.6762 10.0879 97.6762 11.1937C99.2918 11.1937 100.866 11.1937 102.441 11.1937C102.65 11.1937 102.859 11.1937 103.068 11.1937C104.751 11.1922 104.842 11.317 104.44 13.1919C101.469 13.1919 98.4774 13.1919 95.2666 13.1919C95.2666 12.3169 95.2666 11.4651 95.2666 10.6132C95.2681 9.36817 95.2739 8.12164 95.2681 6.87657C95.2651 6.40786 95.3821 6.02331 95.9319 6.02041C98.4686 6.01025 101.005 6.01605 103.612 6.01605Z"
    fill="black" />
  <path
    d="M104.368 1.14903C104.368 1.78318 104.368 2.26641 104.368 2.84976C104.043 2.902 103.729 2.99343 103.414 2.99488C101.082 3.00794 98.7516 2.98182 96.421 3.01664C95.6329 3.02825 95.2878 2.78156 95.2981 1.95586C95.3083 1.15484 95.7075 0.996666 96.399 1.00247C98.6887 1.02424 100.978 1.00682 103.268 1.01698C103.591 1.01698 103.914 1.09099 104.368 1.14903Z"
    fill="black" />
  <path
    d="M72.8603 13.1555C69.8732 13.1555 67.0908 13.1555 64.1797 13.1555C64.1797 9.10834 64.1797 5.0858 64.1797 1.00232C64.8961 1.00232 65.5395 1.00232 66.3305 1.00232C66.3305 4.3762 66.3305 7.67171 66.3305 11.0949C68.5017 11.0949 70.5326 11.0949 72.717 11.0949C72.7652 11.806 72.8062 12.3951 72.8603 13.1555Z"
    fill="black" />
  <path
    d="M54.5037 3.87962C53.1133 7.13016 51.8091 10.1746 50.4771 13.2859C49.7592 13.2859 49.0296 13.2859 48.1348 13.2859C48.4857 12.4544 48.7752 11.7404 49.0851 11.0351C50.4537 7.91812 51.8471 4.8127 53.182 1.68261C53.4612 1.0267 53.9013 0.988972 54.4716 1.00493C55.0491 1.01945 55.6076 0.891745 55.9249 1.63182C57.5464 5.40766 59.2088 9.16464 60.8522 12.9303C60.88 12.9956 60.8449 13.0885 60.8347 13.2438C60.6607 13.2786 60.4706 13.3512 60.2791 13.3512C58.2965 13.3453 58.7351 13.5674 58.0011 11.9174C57.0405 9.75815 56.1501 7.56695 55.2216 5.39315C55.033 4.94475 54.8079 4.51522 54.5037 3.87962Z"
    fill="#0F52BA" />
  <path
    d="M42.5947 1.0271C43.336 1.0271 43.9501 1.0271 44.6899 1.0271C44.6899 5.09317 44.6899 9.11425 44.6899 13.2064C43.972 13.2064 43.3243 13.2064 42.5947 13.2064C42.5947 9.16359 42.5947 5.16863 42.5947 1.0271Z"
    fill="#0F52BA" />
  <path
    d="M34.5967 0.501099C35.338 0.501099 35.9521 0.501099 36.6919 0.501099C36.6919 4.56717 36.6919 8.58825 36.6919 12.6804C35.974 12.6804 35.3263 12.6804 34.5967 12.6804C34.5967 8.63759 34.5967 4.64262 34.5967 0.501099Z"
    fill="#0F52BA" />
  <path
    d="M25.5713 1.50342C26.3126 1.50342 26.9267 1.50342 27.6665 1.50342C27.6665 5.56949 27.6665 9.59057 27.6665 13.6828C26.9486 13.6828 26.3009 13.6828 25.5713 13.6828C25.5713 9.63991 25.5713 5.64495 25.5713 1.50342Z"
    fill="#0F52BA" />
  <path
    d="M47.6323 1.07078C47.4758 1.02144 47.2872 0.999673 47.0562 1.00257C46.5678 1.00983 46.078 1.01273 45.5897 1.01563C43.7474 1.02579 41.9052 1.01273 40.0629 1.02289C39.9167 1.02434 39.7705 1.04466 39.6228 1.07078C39.2982 1.17526 39.1154 1.4205 39.1096 1.95451C39.1023 2.53787 39.2763 2.82809 39.655 2.94709C39.8523 2.97756 40.0322 3.00078 40.2091 3.00078C40.7048 3.00368 41.2004 3.00223 41.6961 3.00223C43.4901 3.00368 45.2841 2.99932 47.0781 3.01529C47.3091 3.01674 47.5036 2.99787 47.6644 2.94563C47.989 2.84115 48.1718 2.59591 48.1776 2.0619C48.1864 1.48 48.0109 1.18977 47.6323 1.07078Z"
    fill="#0F52BA" />
  <path
    d="M36.5254 12.0668C36.3807 11.8146 36.1772 11.5347 35.9051 11.2106C35.329 10.5263 34.7546 9.83723 34.1819 9.15018C32.022 6.5578 29.88 3.95062 27.7201 1.35824C27.5482 1.1529 27.3617 0.959597 27.1691 0.76793C26.7094 0.376653 26.3068 0.275193 25.8884 0.607431C25.4302 0.969064 25.4098 1.39956 25.7605 2.00964C25.9675 2.30751 26.1597 2.57602 26.3664 2.8256C26.9432 3.52666 27.5233 4.22495 28.1023 4.92417C30.1969 7.45588 32.296 9.9839 34.3794 12.5249C34.6481 12.8517 34.8898 13.114 35.1179 13.3076C35.5776 13.6988 35.9802 13.8003 36.3986 13.4681C36.8574 13.1094 36.8761 12.6768 36.5254 12.0668Z"
    fill="#0F52BA" />
  <path
    d="M22.3858 6.01605C22.3858 6.75613 22.3858 7.31772 22.3858 8.0549C20.4075 8.0549 18.4688 8.0549 16.4496 8.0549C16.4496 9.15776 16.4496 10.0879 16.4496 11.1937C18.0652 11.1937 19.6399 11.1937 21.2146 11.1937C21.4237 11.1937 21.6328 11.1937 21.8419 11.1937C23.5248 11.1922 23.6154 11.317 23.2133 13.1919C20.2423 13.1919 17.2508 13.1919 14.04 13.1919C14.04 12.3169 14.04 11.4651 14.04 10.6132C14.0415 9.36817 14.0473 8.12164 14.0415 6.87657C14.0386 6.40786 14.1555 6.02331 14.7053 6.02041C17.2421 6.01025 19.7788 6.01605 22.3858 6.01605Z"
    fill="black" />
  <path
    d="M23.14 1.14903C23.14 1.78318 23.14 2.26641 23.14 2.84976C22.8154 2.90201 22.5011 2.99343 22.1867 2.99488C19.8547 3.00794 17.524 2.98182 15.1934 3.01664C14.4054 3.02825 14.0603 2.78156 14.0705 1.95586C14.0808 1.15484 14.4799 0.996666 15.1715 1.00247C17.4612 1.02424 19.7508 1.00682 22.0405 1.01698C22.3636 1.01698 22.6868 1.09099 23.14 1.14903Z"
    fill="black" />
  <path
    d="M2.23556 13.3201C1.41093 13.3201 0.757371 13.3201 -3.8254e-06 13.3201C-3.8254e-06 9.26133 -3.8254e-06 5.26056 -3.8254e-06 1.2743C1.94168 0.780919 2.27504 0.904266 3.24442 2.41344C4.11877 3.7746 4.99895 5.12996 5.98734 6.658C6.32655 6.20815 6.60435 5.87874 6.83976 5.52031C7.66292 4.26944 8.46416 3.00405 9.28733 1.75463C9.70111 1.12774 11.2349 0.76786 11.8431 1.17563C12.0113 1.28882 12.1487 1.58049 12.1472 1.79091C12.1399 5.56675 12.1107 9.34259 12.0814 13.1184C12.0814 13.1504 12.0317 13.1823 11.9323 13.2998C11.3562 13.2998 10.707 13.2998 9.92336 13.2998C9.92336 10.6617 9.92336 7.56947 9.92336 4.93422C9.89091 4.93422 7.29379 8.65254 6.01367 10.4977C4.7504 8.6504 3.57778 6.93371 2.23556 4.97033C2.23556 7.91178 2.23556 10.5485 2.23556 13.3201Z"
    fill="#0F52BA" />
</svg>
  