<svg width="24" height="24" viewBox="0 0 24 24" fill="none" xmlns="http://www.w3.org/2000/svg">
<path d="M8.40156 4.80001C8.40156 2.81179 10.0133 1.20001 12.0016 1.20001C13.9898 1.20001 15.6016 2.81179 15.6016 4.80001V9.60001C15.6016 11.5882 13.9898 13.2 12.0016 13.2C10.0133 13.2 8.40156 11.5882 8.40156 9.60001V4.80001Z" fill="#757575"/>
<path d="M13.2016 17.9149C17.2723 17.3327 20.4016 13.8318 20.4016 9.60001C20.4016 8.93727 19.8643 8.40001 19.2016 8.40001C18.5388 8.40001 18.0016 8.93727 18.0016 9.60001C18.0016 12.9137 15.3153 15.6 12.0016 15.6C8.68785 15.6 6.00156 12.9137 6.00156 9.60001C6.00156 8.93727 5.4643 8.40001 4.80156 8.40001C4.13882 8.40001 3.60156 8.93727 3.60156 9.60001C3.60156 13.8318 6.73081 17.3327 10.8016 17.9149V20.4H7.20156C6.53882 20.4 6.00156 20.9373 6.00156 21.6C6.00156 22.2628 6.53882 22.8 7.20156 22.8H16.8016C17.4643 22.8 18.0016 22.2628 18.0016 21.6C18.0016 20.9373 17.4643 20.4 16.8016 20.4H13.2016V17.9149Z" fill="#757575"/>
</svg>
