<svg width="14" height="15" viewBox="0 0 14 15" fill="none" xmlns="http://www.w3.org/2000/svg">
<path d="M0.339805 15C0.0654431 14.8787 -0.00417118 14.6712 -7.62269e-05 14.3972C0.0531582 11.7041 2.20301 9.31237 4.97529 8.87787C5.31927 8.82307 5.67553 8.79958 6.0277 8.79175C6.65013 8.78001 7.27257 8.77218 7.895 8.79175C10.2578 8.87395 11.9859 9.9465 13.1202 11.9115C13.5665 12.6827 13.759 13.5282 13.7999 14.4089C13.8122 14.6829 13.7262 14.8826 13.46 15C9.08663 15 4.71322 15 0.339805 15Z" fill="#5B5B5B"/>
<path d="M6.89592 7.91101C4.61503 7.91101 2.75592 6.12604 2.76002 3.94572C2.76821 1.76931 4.62322 0 6.90002 0C9.185 0 11.04 1.78105 11.0359 3.96529C11.0318 6.1417 9.17272 7.91101 6.89592 7.91101Z" fill="#5B5B5B"/>
</svg>
