<svg width="20" height="20" viewBox="0 0 20 20" fill="none" xmlns="http://www.w3.org/2000/svg">
<g clip-path="url(#clip0_10_16266)">
<path d="M16.7216 16.671C15.9333 15.8844 15.1502 15.0977 14.3619 14.311C14.2993 14.2433 14.2523 14.2277 14.174 14.3006C13.4901 14.9101 12.6704 15.0977 11.7829 15.0195C10.4726 14.9101 9.37626 14.285 8.33737 13.54C7.8623 13.1962 7.44987 12.769 7.04789 12.3418C6.58326 11.8521 6.18649 11.3155 5.84194 10.7424C5.58091 10.31 5.38253 9.84111 5.21025 9.36703C5.05363 8.83564 4.93356 8.29383 4.96488 7.7364C5.00142 7.01746 5.19981 6.35583 5.7062 5.81402C5.80017 5.70983 5.72708 5.66815 5.66966 5.61605C5.44517 5.4285 5.25723 5.2097 5.04841 5.00131C4.07216 4.01668 3.08548 3.04247 2.10923 2.05783C2.0257 1.97448 1.98393 1.99011 1.90563 2.06304C1.59239 2.38605 1.28438 2.71426 0.950262 3.01642C0.297691 3.61032 0.0523245 4.39699 0.01056 5.23054C-0.0677486 6.71009 0.396882 8.06982 1.05467 9.37224C1.08078 9.42955 1.10166 9.49206 1.13298 9.54937C1.94217 11.1331 2.98106 12.5554 4.16613 13.8786C5.654 15.5405 7.31936 16.9888 9.21964 18.1714C10.3943 18.9008 11.6315 19.4999 12.9837 19.8229C13.2656 19.8906 13.5579 19.8958 13.8294 20C14.2053 20 14.5864 20 14.9623 20C15.0562 19.9271 15.1711 19.9479 15.2755 19.9271C15.8237 19.8125 16.3509 19.6405 16.7686 19.255C17.1653 18.8903 17.5308 18.4892 17.9171 18.1141C18.0267 18.0099 18.0111 17.9526 17.9119 17.8536C17.5099 17.4629 17.1184 17.067 16.7216 16.671Z" fill="#5B5B5B"/>
<path d="M19.7651 15.5197C19.076 14.8476 18.4078 14.1599 17.7134 13.4931C17.348 13.1388 16.993 12.7637 16.638 12.3991C16.4448 12.1959 16.283 12.2011 16.0846 12.3991C15.7714 12.7116 15.4634 13.0294 15.1449 13.3316C15.0248 13.4462 15.0353 13.5087 15.1501 13.6181C16.2047 14.6601 17.2488 15.7124 18.2981 16.7596C18.4548 16.9159 18.6114 17.1816 18.7732 17.1868C18.9611 17.192 19.1073 16.9107 19.2639 16.7492C19.5145 16.4939 19.7964 16.2699 20 15.9729C20 15.9104 20 15.8427 20 15.7802C19.9217 15.6916 19.8486 15.603 19.7651 15.5197Z" fill="#5B5B5B"/>
<path d="M5.05879 3.52696C5.50776 3.9802 5.96195 4.42824 6.41092 4.87627C6.4579 4.92316 6.49967 5.01693 6.59364 4.92316C6.94864 4.56369 7.31408 4.20943 7.66385 3.83954C7.77871 3.72493 7.77349 3.57906 7.65863 3.45402C7.51246 3.29773 7.37672 3.13623 7.22533 2.98515C6.61974 2.37562 6.01415 1.76608 5.40335 1.16697C5.24151 1.01068 5.05357 0.875228 4.91261 0.698098C4.70379 0.442824 4.46364 0.213597 4.21828 0C4.13997 0 4.06166 0 3.98335 0C3.61269 0.364678 3.25247 0.734566 2.87659 1.08883C2.76696 1.19302 2.7774 1.24512 2.88181 1.3441C3.60747 2.06825 4.33313 2.7976 5.05879 3.52696Z" fill="#5B5B5B"/>
</g>
<defs>
<clipPath id="clip0_10_16266">
<rect width="20" height="20" fill="white"/>
</clipPath>
</defs>
</svg>
