<svg width="24" height="24" viewBox="0 0 24 24" fill="none" xmlns="http://www.w3.org/2000/svg">
<path fill-rule="evenodd" clip-rule="evenodd" d="M4.79844 5.99961C3.47295 5.99961 2.39844 7.07413 2.39844 8.39961V17.9996C2.39844 19.3251 3.47295 20.3996 4.79844 20.3996H19.1984C20.5239 20.3996 21.5984 19.3251 21.5984 17.9996V8.39961C21.5984 7.07413 20.5239 5.99961 19.1984 5.99961H17.2955C16.9772 5.99961 16.672 5.87318 16.447 5.64814L15.1014 4.30255C14.6513 3.85247 14.0408 3.59961 13.4043 3.59961H10.5926C9.95603 3.59961 9.34558 3.85246 8.89549 4.30255L7.54991 5.64814C7.32487 5.87318 7.01964 5.99961 6.70138 5.99961H4.79844ZM11.9984 16.7996C13.9867 16.7996 15.5984 15.1878 15.5984 13.1996C15.5984 11.2114 13.9867 9.59961 11.9984 9.59961C10.0102 9.59961 8.39844 11.2114 8.39844 13.1996C8.39844 15.1878 10.0102 16.7996 11.9984 16.7996Z" fill="#757575"/>
</svg>
