<svg width="24" height="24" viewBox="0 0 24 24" fill="none" xmlns="http://www.w3.org/2000/svg">
<path fill-rule="evenodd" clip-rule="evenodd" d="M11.9984 21.6004C17.3004 21.6004 21.5984 17.3023 21.5984 12.0004C21.5984 6.69846 17.3004 2.40039 11.9984 2.40039C6.6965 2.40039 2.39844 6.69846 2.39844 12.0004C2.39844 17.3023 6.6965 21.6004 11.9984 21.6004ZM5.19658 9.63328C5.64495 8.34472 6.44913 7.22276 7.49149 6.38506C7.81295 6.87598 8.36783 7.20028 8.99846 7.20028C9.99257 7.20028 10.7985 8.00617 10.7985 9.00028V9.60028C10.7985 10.9258 11.873 12.0003 13.1985 12.0003C14.5239 12.0003 15.5985 10.9258 15.5985 9.60028C15.5985 8.47214 16.3768 7.5258 17.4258 7.26902C18.5298 8.53432 19.1985 10.1892 19.1985 12.0003C19.1985 12.4092 19.1644 12.8102 19.0989 13.2005H17.9984C16.6729 13.2005 15.5984 14.275 15.5984 15.6005V18.2371C14.5394 18.8497 13.3097 19.2003 11.9983 19.2003V16.8004C11.9983 15.4749 10.9238 14.4004 9.59834 14.4004C8.27285 14.4004 7.19834 13.3259 7.19834 12.0004C7.19834 10.8106 6.33253 9.82299 5.19658 9.63328Z" fill="#757575"/>
</svg>
