<svg width="17" height="24" viewBox="0 0 17 24" fill="none" xmlns="http://www.w3.org/2000/svg">
  <path
    d="M2.80825 0H14.0398C15.5875 0 16.8477 1.12101 16.8477 2.49998V23.4999C16.8477 23.7019 16.7106 23.8849 16.5006 23.961C16.2906 24.0399 16.0491 23.996 15.8885 23.853L8.42402 17.207L0.959574 23.854C0.851751 23.949 0.70797 24 0.561979 24C0.490114 24 0.417093 23.988 0.347441 23.962C0.137428 23.885 0.000385284 23.702 0.000385284 23.5V2.50003C0.000385284 1.122 1.26056 0 2.80825 0ZM1.12352 22.292L8.02643 16.146C8.13651 16.049 8.28024 16 8.42402 16C8.5678 16 8.71153 16.0489 8.82162 16.147L15.7245 22.293V2.49998C15.7245 1.67297 14.9687 0.999982 14.0398 0.999982H2.8083C1.87944 0.999982 1.12357 1.67297 1.12357 2.49998V22.292H1.12352Z"
    fill="black" />
</svg>
  