<svg xmlns="http://www.w3.org/2000/svg" width="2000" height="2000" viewBox="0 0 2000 2000" version="1.1"><path d="M 535.036 551.456 C 533.037 553.865, 534.815 555, 540.590 555 C 544.686 555, 546.217 554.597, 546.677 553.399 C 547.015 552.519, 546.663 551.400, 545.896 550.914 C 543.639 549.485, 536.371 549.848, 535.036 551.456 M 559.036 551.456 C 557.037 553.865, 558.815 555, 564.590 555 C 568.686 555, 570.217 554.597, 570.677 553.399 C 571.015 552.519, 570.663 551.400, 569.896 550.914 C 567.639 549.485, 560.371 549.848, 559.036 551.456 M 583.036 551.456 C 581.037 553.865, 582.815 555, 588.590 555 C 592.686 555, 594.217 554.597, 594.677 553.399 C 595.015 552.519, 594.663 551.400, 593.896 550.914 C 591.639 549.485, 584.371 549.848, 583.036 551.456 M 607.036 551.456 C 605.037 553.865, 606.815 555, 612.590 555 C 616.686 555, 618.217 554.597, 618.677 553.399 C 619.015 552.519, 618.663 551.400, 617.896 550.914 C 615.639 549.485, 608.371 549.848, 607.036 551.456 M 631.036 551.456 C 629.037 553.865, 630.815 555, 636.590 555 C 640.686 555, 642.217 554.597, 642.677 553.399 C 643.015 552.519, 642.663 551.400, 641.896 550.914 C 639.639 549.485, 632.371 549.848, 631.036 551.456 M 655.036 551.456 C 653.037 553.865, 654.815 555, 660.590 555 C 664.686 555, 666.217 554.597, 666.677 553.399 C 667.015 552.519, 666.663 551.400, 665.896 550.914 C 663.639 549.485, 656.371 549.848, 655.036 551.456 M 679.036 551.456 C 677.037 553.865, 678.815 555, 684.590 555 C 688.686 555, 690.217 554.597, 690.677 553.399 C 691.015 552.519, 690.663 551.400, 689.896 550.914 C 687.639 549.485, 680.371 549.848, 679.036 551.456 M 703.036 551.456 C 701.037 553.865, 702.815 555, 708.590 555 C 712.686 555, 714.217 554.597, 714.677 553.399 C 715.015 552.519, 714.663 551.400, 713.896 550.914 C 711.639 549.485, 704.371 549.848, 703.036 551.456 M 727.036 551.456 C 725.037 553.865, 726.815 555, 732.590 555 C 736.686 555, 738.217 554.597, 738.677 553.399 C 739.015 552.519, 738.663 551.400, 737.896 550.914 C 735.639 549.485, 728.371 549.848, 727.036 551.456 M 751.036 551.456 C 749.037 553.865, 750.815 555, 756.590 555 C 760.686 555, 762.217 554.597, 762.677 553.399 C 763.015 552.519, 762.663 551.400, 761.896 550.914 C 759.639 549.485, 752.371 549.848, 751.036 551.456 M 775.036 551.456 C 773.037 553.865, 774.815 555, 780.590 555 C 784.686 555, 786.217 554.597, 786.677 553.399 C 787.015 552.519, 786.663 551.400, 785.896 550.914 C 783.639 549.485, 776.371 549.848, 775.036 551.456 M 799.036 551.456 C 797.037 553.865, 798.815 555, 804.590 555 C 808.686 555, 810.217 554.597, 810.677 553.399 C 811.015 552.519, 810.663 551.400, 809.896 550.914 C 807.639 549.485, 800.371 549.848, 799.036 551.456 M 823.036 551.456 C 821.037 553.865, 822.815 555, 828.590 555 C 832.686 555, 834.217 554.597, 834.677 553.399 C 835.015 552.519, 834.663 551.400, 833.896 550.914 C 831.639 549.485, 824.371 549.848, 823.036 551.456 M 847.036 551.456 C 845.037 553.865, 846.815 555, 852.590 555 C 856.686 555, 858.217 554.597, 858.677 553.399 C 859.015 552.519, 858.663 551.400, 857.896 550.914 C 855.639 549.485, 848.371 549.848, 847.036 551.456 M 871.036 551.456 C 869.037 553.865, 870.815 555, 876.590 555 C 880.686 555, 882.217 554.597, 882.677 553.399 C 883.015 552.519, 882.663 551.400, 881.896 550.914 C 879.639 549.485, 872.371 549.848, 871.036 551.456 M 895.036 551.456 C 893.037 553.865, 894.815 555, 900.590 555 C 904.686 555, 906.217 554.597, 906.677 553.399 C 907.015 552.519, 906.663 551.400, 905.896 550.914 C 903.639 549.485, 896.371 549.848, 895.036 551.456 M 919.036 551.456 C 917.037 553.865, 918.815 555, 924.590 555 C 928.686 555, 930.217 554.597, 930.677 553.399 C 931.015 552.519, 930.663 551.400, 929.896 550.914 C 927.639 549.485, 920.371 549.848, 919.036 551.456 M 943.036 551.456 C 941.037 553.865, 942.815 555, 948.590 555 C 952.686 555, 954.217 554.597, 954.677 553.399 C 955.015 552.519, 954.663 551.400, 953.896 550.914 C 951.639 549.485, 944.371 549.848, 943.036 551.456 M 967.036 551.456 C 965.037 553.865, 966.815 555, 972.590 555 C 976.686 555, 978.217 554.597, 978.677 553.399 C 979.015 552.519, 978.663 551.400, 977.896 550.914 C 975.639 549.485, 968.371 549.848, 967.036 551.456 M 991.036 551.456 C 989.040 553.862, 990.813 555, 996.559 555 C 1001.212 555, 1002 554.729, 1002 553.125 C 1002 550.144, 993.233 548.810, 991.036 551.456 M 469 553 C 469 554.778, 469.667 555, 475 555 C 480.333 555, 481 554.778, 481 553 C 481 551.222, 480.333 551, 475 551 C 469.667 551, 469 551.222, 469 553 M 1015.186 552.750 C 1015.443 554.103, 1016.709 554.569, 1020.759 554.802 C 1025.476 555.074, 1026 554.899, 1026 553.052 C 1026 551.228, 1025.381 551, 1020.427 551 C 1015.659 551, 1014.901 551.253, 1015.186 552.750 M 1039.186 552.750 C 1039.443 554.103, 1040.709 554.569, 1044.759 554.802 C 1049.476 555.074, 1050 554.899, 1050 553.052 C 1050 551.228, 1049.381 551, 1044.427 551 C 1039.659 551, 1038.901 551.253, 1039.186 552.750 M 1063.186 552.750 C 1063.443 554.103, 1064.709 554.569, 1068.759 554.802 C 1073.476 555.074, 1074 554.899, 1074 553.052 C 1074 551.228, 1073.381 551, 1068.427 551 C 1063.659 551, 1062.901 551.253, 1063.186 552.750 M 1087.186 552.750 C 1087.443 554.103, 1088.709 554.569, 1092.759 554.802 C 1097.476 555.074, 1098 554.899, 1098 553.052 C 1098 551.228, 1097.381 551, 1092.427 551 C 1087.659 551, 1086.901 551.253, 1087.186 552.750 M 1111.186 552.750 C 1111.443 554.103, 1112.709 554.569, 1116.759 554.802 C 1121.476 555.074, 1122 554.899, 1122 553.052 C 1122 551.228, 1121.381 551, 1116.427 551 C 1111.659 551, 1110.901 551.253, 1111.186 552.750 M 1135.186 552.750 C 1135.443 554.103, 1136.709 554.569, 1140.759 554.802 C 1145.476 555.074, 1146 554.899, 1146 553.052 C 1146 551.228, 1145.381 551, 1140.427 551 C 1135.659 551, 1134.901 551.253, 1135.186 552.750 M 1159.186 552.750 C 1159.443 554.103, 1160.709 554.569, 1164.759 554.802 C 1169.476 555.074, 1170 554.899, 1170 553.052 C 1170 551.228, 1169.381 551, 1164.427 551 C 1159.659 551, 1158.901 551.253, 1159.186 552.750 M 1183.190 552.750 C 1183.457 554.137, 1184.559 554.500, 1188.500 554.500 C 1192.441 554.500, 1193.543 554.137, 1193.810 552.750 C 1194.098 551.250, 1193.339 551, 1188.500 551 C 1183.661 551, 1182.902 551.250, 1183.190 552.750 M 1207.190 552.750 C 1207.457 554.137, 1208.559 554.500, 1212.500 554.500 C 1216.441 554.500, 1217.543 554.137, 1217.810 552.750 C 1218.098 551.250, 1217.339 551, 1212.500 551 C 1207.661 551, 1206.902 551.250, 1207.190 552.750 M 1231.190 552.750 C 1231.457 554.137, 1232.559 554.500, 1236.500 554.500 C 1240.441 554.500, 1241.543 554.137, 1241.810 552.750 C 1242.098 551.250, 1241.339 551, 1236.500 551 C 1231.661 551, 1230.902 551.250, 1231.190 552.750 M 1255.190 552.750 C 1255.457 554.137, 1256.559 554.500, 1260.500 554.500 C 1264.441 554.500, 1265.543 554.137, 1265.810 552.750 C 1266.098 551.250, 1265.339 551, 1260.500 551 C 1255.661 551, 1254.902 551.250, 1255.190 552.750 M 1279.190 552.750 C 1279.457 554.137, 1280.559 554.500, 1284.500 554.500 C 1288.441 554.500, 1289.543 554.137, 1289.810 552.750 C 1290.098 551.250, 1289.339 551, 1284.500 551 C 1279.661 551, 1278.902 551.250, 1279.190 552.750 M 1303.190 552.750 C 1303.457 554.137, 1304.559 554.500, 1308.500 554.500 C 1312.441 554.500, 1313.543 554.137, 1313.810 552.750 C 1314.098 551.250, 1313.339 551, 1308.500 551 C 1303.661 551, 1302.902 551.250, 1303.190 552.750 M 1327.190 552.750 C 1327.457 554.137, 1328.559 554.500, 1332.500 554.500 C 1336.441 554.500, 1337.543 554.137, 1337.810 552.750 C 1338.098 551.250, 1337.339 551, 1332.500 551 C 1327.661 551, 1326.902 551.250, 1327.190 552.750 M 1351.190 552.750 C 1351.457 554.137, 1352.559 554.500, 1356.500 554.500 C 1360.441 554.500, 1361.543 554.137, 1361.810 552.750 C 1362.098 551.250, 1361.339 551, 1356.500 551 C 1351.661 551, 1350.902 551.250, 1351.190 552.750 M 1375.186 552.750 C 1375.443 554.103, 1376.709 554.569, 1380.759 554.802 C 1385.476 555.074, 1386 554.899, 1386 553.052 C 1386 551.228, 1385.381 551, 1380.427 551 C 1375.659 551, 1374.901 551.253, 1375.186 552.750 M 1399.186 552.750 C 1399.443 554.103, 1400.709 554.569, 1404.759 554.802 C 1409.476 555.074, 1410 554.899, 1410 553.052 C 1410 551.228, 1409.381 551, 1404.427 551 C 1399.659 551, 1398.901 551.253, 1399.186 552.750 M 1423.186 552.750 C 1423.443 554.103, 1424.709 554.569, 1428.759 554.802 C 1433.476 555.074, 1434 554.899, 1434 553.052 C 1434 551.228, 1433.381 551, 1428.427 551 C 1423.659 551, 1422.901 551.253, 1423.186 552.750 M 1447.186 552.750 C 1447.443 554.103, 1448.709 554.569, 1452.759 554.802 C 1457.476 555.074, 1458 554.899, 1458 553.052 C 1458 551.228, 1457.381 551, 1452.427 551 C 1447.659 551, 1446.901 551.253, 1447.186 552.750 M 450.294 553.308 C 446.057 554.884, 444.867 556.166, 445.976 557.962 C 447.310 560.119, 458.264 556.615, 457.800 554.180 C 457.401 552.088, 454.484 551.749, 450.294 553.308 M 1470.870 554.656 C 1469.380 556.451, 1470.510 557.394, 1476.282 559.171 C 1478.992 560.006, 1480.371 560.029, 1481.145 559.255 C 1482.766 557.634, 1481.483 556.353, 1476.555 554.673 C 1472.612 553.330, 1471.973 553.328, 1470.870 554.656 M 429.157 564.116 C 426.624 565.979, 425.027 567.900, 425.212 568.862 C 425.737 571.590, 428.314 571.115, 432.500 567.515 C 436.106 564.415, 436.348 563.924, 434.957 562.531 C 433.565 561.137, 432.996 561.293, 429.157 564.116 M 1492.165 565.301 C 1490.537 567.263, 1498.429 574.971, 1500.226 573.174 C 1501.755 571.645, 1500.596 569.601, 1496.335 566.315 C 1493.830 564.384, 1493.078 564.201, 1492.165 565.301 M 413.512 581.768 C 410.698 585.909, 410.189 590, 412.487 590 C 414.095 590, 419 582.940, 419 580.627 C 419 577.493, 415.991 578.119, 413.512 581.768 M 1507 583.973 C 1507 585.649, 1511.356 594, 1512.231 594 C 1514.048 594, 1514.163 590.688, 1512.476 586.946 C 1511.335 584.417, 1510.033 583, 1508.848 583 C 1507.832 583, 1507 583.438, 1507 583.973 M 405.607 602.582 C 405.273 603.452, 405 606.152, 405 608.582 C 405 612.242, 405.323 613, 406.883 613 C 409.001 613, 409.966 610.435, 409.986 604.750 C 409.997 601.733, 409.630 601, 408.107 601 C 407.066 601, 405.941 601.712, 405.607 602.582 M 1515.258 606.238 C 1513.740 608.140, 1515.159 616.500, 1517 616.500 C 1519.086 616.500, 1519.659 607.792, 1517.681 606.150 C 1516.591 605.246, 1516.034 605.266, 1515.258 606.238 M 404.607 626.582 C 404.273 627.452, 404 629.440, 404 631 C 404 635.139, 404.964 637, 407.107 637 C 408.754 637, 409 636.220, 409 631 C 409 625.780, 408.754 625, 407.107 625 C 406.066 625, 404.941 625.712, 404.607 626.582 M 1494.500 630.614 C 1492.850 630.854, 1486.550 631.739, 1480.500 632.581 C 1446.801 637.273, 1412.694 649.523, 1383 667.598 C 1335.094 696.759, 1298.368 740.638, 1277.060 794.175 L 1272.414 805.850 1133.957 725.895 C 1057.806 681.919, 994.825 646.124, 994 646.349 C 993.175 646.575, 925.450 685.489, 843.500 732.825 L 694.500 818.891 688.448 815.507 L 682.396 812.123 545.948 890.956 L 409.500 969.788 409 965.653 C 408.650 962.759, 407.975 961.418, 406.750 961.186 C 405.247 960.900, 404.998 961.675, 404.984 966.677 L 404.967 972.500 377.012 988.500 L 349.057 1004.500 349.029 1014.250 L 349 1024 358.500 1024 L 368 1024 368 1165.393 C 368 1285.199, 368.212 1306.867, 369.390 1307.320 C 371.515 1308.135, 385.033 1308.164, 722.500 1308.080 L 1037.500 1308.001 1037.500 1285.250 C 1037.500 1265.694, 1037.711 1262.500, 1039 1262.500 C 1040.289 1262.500, 1040.500 1265.694, 1040.500 1285.250 L 1040.500 1308.001 1252.699 1308 L 1464.898 1308 1463.449 1311.468 C 1462.204 1314.447, 1462 1337.289, 1462 1473.430 C 1462 1631.040, 1462.012 1631.956, 1464.061 1637.433 C 1466.682 1644.438, 1473.288 1651.307, 1480.780 1654.819 L 1486.500 1657.500 1519.143 1657.276 C 1557.983 1657.010, 1559.088 1656.782, 1568.282 1647.144 C 1577.775 1637.191, 1577 1652.771, 1577 1471.920 L 1577 1313.203 1573.994 1307.488 L 1570.987 1301.773 1571.244 1228.136 L 1571.500 1154.500 1582 1151.782 C 1599.930 1147.141, 1612.825 1142.254, 1631.500 1133.023 C 1659.674 1119.096, 1678.521 1105.603, 1700.579 1083.567 C 1721.263 1062.903, 1735.952 1042.279, 1749.058 1015.500 C 1761.186 990.719, 1767.364 971.894, 1771.983 945.636 C 1776.096 922.256, 1776.839 904.863, 1774.979 875.500 C 1770.904 811.171, 1747.875 757.084, 1704.767 710.603 C 1666.501 669.344, 1613.303 641.584, 1555 632.452 C 1544.940 630.877, 1501.740 629.564, 1494.500 630.614 M 1504 632.663 C 1468.609 636.132, 1445.689 641.544, 1419.823 652.541 C 1389.072 665.615, 1361.429 684.252, 1339.126 706.944 C 1317.930 728.511, 1303.772 748.454, 1290.458 775.500 C 1272.821 811.327, 1264.909 845.510, 1264.881 886 C 1264.859 917.046, 1268.414 939.227, 1278.102 968.500 C 1289.786 1003.804, 1309.493 1035.969, 1336.546 1063.892 C 1378.515 1107.210, 1431.513 1133.014, 1493 1140.068 C 1507.709 1141.756, 1538.940 1140.732, 1554.931 1138.037 C 1621.396 1126.839, 1679.139 1091.697, 1718.483 1038.500 C 1729.239 1023.956, 1733.445 1017.082, 1741.780 1000.420 C 1790.571 902.880, 1771.724 785.031, 1695.021 708.043 C 1655.538 668.414, 1609.627 644.824, 1554 635.584 C 1537.024 632.764, 1515.686 631.518, 1504 632.663 M 404.607 650.582 C 404.273 651.452, 404 653.440, 404 655 C 404 659.139, 404.964 661, 407.107 661 C 408.754 661, 409 660.220, 409 655 C 409 649.780, 408.754 649, 407.107 649 C 406.066 649, 404.941 649.712, 404.607 650.582 M 404.607 674.582 C 404.273 675.452, 404 677.440, 404 679 C 404 683.139, 404.964 685, 407.107 685 C 408.754 685, 409 684.220, 409 679 C 409 673.780, 408.754 673, 407.107 673 C 406.066 673, 404.941 673.712, 404.607 674.582 M 1506.500 679.652 C 1496.352 680.466, 1476.205 684.223, 1466.198 687.168 C 1401.481 706.210, 1350.714 754.178, 1327.730 818 C 1325.254 824.875, 1322.467 834.325, 1321.537 839 C 1320.607 843.675, 1319.178 848.912, 1318.362 850.639 C 1316.780 853.984, 1314.032 863.599, 1314.012 865.857 C 1314.005 866.603, 1314.563 866.998, 1315.250 866.735 C 1316.231 866.359, 1316.500 872.092, 1316.500 893.378 C 1316.500 922.104, 1317.326 931.035, 1321.554 948 C 1325.085 962.171, 1327.335 968.034, 1334.518 981.795 C 1341.897 995.933, 1347.101 1004, 1356.181 1015.377 C 1361.392 1021.906, 1362.556 1022.909, 1362.984 1021.238 C 1363.428 1019.505, 1364.235 1020.054, 1368.750 1025.160 C 1371.638 1028.426, 1374 1031.940, 1374 1032.968 C 1374 1035.451, 1387.800 1048, 1390.530 1048 C 1392.808 1048, 1405.500 1057.298, 1405.500 1058.967 C 1405.500 1061.243, 1435.173 1076.624, 1444.300 1079.080 C 1446.610 1079.701, 1449.836 1080.900, 1451.470 1081.744 C 1459.257 1085.768, 1488.968 1092.238, 1507.112 1093.861 C 1528.164 1095.745, 1559.266 1090.393, 1584.955 1080.466 C 1634.697 1061.245, 1674.551 1023.941, 1698.128 974.535 C 1700.762 969.016, 1702.935 964.759, 1702.958 965.075 C 1703.053 966.375, 1698.121 979.843, 1696.100 983.803 C 1693.506 988.889, 1691.886 993, 1692.476 993 C 1693.304 993, 1699.950 980.371, 1704.380 970.380 C 1709.823 958.103, 1713.393 945.321, 1715.658 930 C 1718.080 913.621, 1718.043 872.780, 1715.593 857.500 C 1703.447 781.767, 1655.140 721.044, 1585 693.341 C 1561.331 683.993, 1527.004 678.007, 1506.500 679.652 M 1501.572 684.035 C 1480.913 686.385, 1454.735 693.769, 1436.500 702.391 C 1393.864 722.551, 1358.733 757.948, 1338.986 800.643 C 1334.863 809.556, 1328.691 826.025, 1329.261 826.594 C 1329.429 826.762, 1331.490 822.535, 1333.841 817.200 C 1352.893 773.968, 1387.512 737.245, 1428.590 716.689 C 1474.821 693.555, 1520.809 688.553, 1566.474 701.690 C 1571.420 703.113, 1580.119 706.025, 1585.805 708.161 C 1634.776 726.555, 1677.669 767.438, 1699.159 816.200 C 1701.510 821.535, 1703.560 825.773, 1703.715 825.619 C 1704.302 825.032, 1699.068 810.987, 1694.889 801.935 C 1672.538 753.521, 1633.838 716.856, 1584.228 697.091 C 1558.082 686.674, 1524.715 681.404, 1501.572 684.035 M 404.607 698.582 C 404.273 699.452, 404 701.440, 404 703 C 404 707.139, 404.964 709, 407.107 709 C 408.754 709, 409 708.220, 409 703 C 409 697.780, 408.754 697, 407.107 697 C 406.066 697, 404.941 697.712, 404.607 698.582 M 1502.500 698.707 C 1495.651 699.183, 1478.372 702.640, 1467.500 705.710 C 1417.827 719.739, 1374.940 752.959, 1348.347 798.004 C 1342.872 807.278, 1334.598 824.341, 1335.828 823.823 C 1336.249 823.645, 1343.934 819.523, 1352.905 814.662 C 1361.876 809.800, 1369.954 806.017, 1370.858 806.255 C 1372.858 806.780, 1607.102 933.817, 1608.470 935.118 C 1609.088 935.705, 1608.223 938.299, 1606.085 942.270 C 1600.246 953.112, 1601.484 952.976, 1586 944.476 L 1572.500 937.065 1571.808 940.783 C 1571.033 944.940, 1570.722 1081, 1571.486 1081 C 1571.754 1081, 1576.592 1079.263, 1582.236 1077.141 C 1630.577 1058.965, 1671.897 1020.747, 1693.748 974 C 1702.767 954.703, 1708.199 936.473, 1711.409 914.720 C 1719.127 862.426, 1695.981 799.276, 1653.929 757.891 C 1635.563 739.817, 1619.753 728.575, 1598 718.121 C 1566.650 703.056, 1534.378 696.495, 1502.500 698.707 M 404.607 722.582 C 404.273 723.452, 404 725.440, 404 727 C 404 731.139, 404.964 733, 407.107 733 C 408.754 733, 409 732.220, 409 727 C 409 721.780, 408.754 721, 407.107 721 C 406.066 721, 404.941 721.712, 404.607 722.582 M 405 751 C 405 756.316, 405.237 757.101, 406.750 756.810 C 408.162 756.538, 408.500 755.417, 408.500 751 C 408.500 746.583, 408.162 745.462, 406.750 745.190 C 405.237 744.899, 405 745.684, 405 751 M 405 775 C 405 780.316, 405.237 781.101, 406.750 780.810 C 408.162 780.538, 408.500 779.417, 408.500 775 C 408.500 770.583, 408.162 769.462, 406.750 769.190 C 405.237 768.899, 405 769.684, 405 775 M 405 799 C 405 804.316, 405.237 805.101, 406.750 804.810 C 408.162 804.538, 408.500 803.417, 408.500 799 C 408.500 794.583, 408.162 793.462, 406.750 793.190 C 405.237 792.899, 405 793.684, 405 799 M 1351.076 820.357 L 1332.651 830.500 1330.333 837.424 C 1329.058 841.232, 1328.209 844.542, 1328.447 844.780 C 1328.684 845.018, 1338.154 840.180, 1349.489 834.030 L 1370.100 822.848 1463.800 873.598 C 1515.335 901.511, 1566.846 929.413, 1578.270 935.602 L 1599.040 946.855 1601.502 941.996 L 1603.964 937.137 1566.732 916.892 C 1493.349 876.990, 1369.678 810.002, 1369.590 810.107 C 1369.540 810.166, 1361.209 814.778, 1351.076 820.357 M 405 823 C 405 828.316, 405.237 829.101, 406.750 828.810 C 408.162 828.538, 408.500 827.417, 408.500 823 C 408.500 818.583, 408.162 817.462, 406.750 817.190 C 405.237 816.899, 405 817.684, 405 823 M 1346.390 849.682 L 1323.280 862.288 1321.639 873.894 C 1319.495 889.056, 1319.584 901.725, 1321.938 916.500 C 1325.534 939.068, 1330.971 957.059, 1339.314 974 L 1343.500 982.500 1399.750 982.758 C 1443.734 982.960, 1456.003 983.287, 1456.014 984.258 C 1456.022 984.941, 1456.135 1006.633, 1456.264 1032.463 L 1456.500 1079.426 1465.500 1082.234 C 1475.867 1085.469, 1492.028 1088.498, 1506.686 1089.954 C 1520.971 1091.372, 1542.225 1089.162, 1560.750 1084.333 L 1567 1082.703 1566.977 1013.102 L 1566.954 943.500 1552.727 935.880 C 1544.902 931.688, 1500.981 907.915, 1455.125 883.050 C 1409.268 858.185, 1371.243 837.669, 1370.625 837.459 C 1370.006 837.249, 1359.100 842.749, 1346.390 849.682 M 405 847 C 405 852.316, 405.237 853.101, 406.750 852.810 C 408.162 852.538, 408.500 851.417, 408.500 847 C 408.500 842.583, 408.162 841.462, 406.750 841.190 C 405.237 840.899, 405 841.684, 405 847 M 405 871 C 405 876.316, 405.237 877.101, 406.750 876.810 C 408.162 876.538, 408.500 875.417, 408.500 871 C 408.500 866.583, 408.162 865.462, 406.750 865.190 C 405.237 864.899, 405 865.684, 405 871 M 1224 889.365 C 1205.575 899.399, 1178.245 914.251, 1163.266 922.369 L 1136.031 937.128 1138.548 942.095 L 1141.065 947.062 1147.282 943.608 C 1150.702 941.708, 1176.897 927.485, 1205.494 912 C 1234.090 896.515, 1257.687 883.646, 1257.931 883.402 C 1258.811 882.523, 1259.220 871.001, 1258.370 871.061 C 1257.892 871.094, 1242.425 879.331, 1224 889.365 M 405 895 C 405 900.316, 405.237 901.101, 406.750 900.810 C 408.162 900.538, 408.500 899.417, 408.500 895 C 408.500 890.583, 408.162 889.462, 406.750 889.190 C 405.237 888.899, 405 889.684, 405 895 M 1215.286 920.755 L 1173.071 943.500 1173.036 1123.750 L 1173 1304 1319.965 1304 L 1466.930 1304 1470.215 1301.147 C 1474.619 1297.322, 1476.889 1296.217, 1483.077 1294.890 L 1488.307 1293.768 1487.654 1275.724 C 1487.294 1265.799, 1487 1235.346, 1487 1208.049 L 1487 1158.418 1473.750 1156.217 C 1466.463 1155.006, 1459.600 1153.899, 1458.500 1153.758 C 1456.599 1153.513, 1456.490 1154.140, 1456.290 1166.500 C 1456.175 1173.650, 1456.063 1180.063, 1456.040 1180.750 C 1456.018 1181.438, 1455.325 1182, 1454.500 1182 C 1453.234 1182, 1453 1179.674, 1453 1167.067 C 1453 1152.991, 1452.885 1152.102, 1451 1151.567 C 1449.900 1151.255, 1448.100 1150.745, 1447 1150.433 C 1445.090 1149.891, 1445 1150.343, 1445 1160.445 L 1445 1171.026 1409.750 1170.763 L 1374.500 1170.500 1374.218 1148 C 1374.062 1135.625, 1374.176 1124.519, 1374.469 1123.319 C 1374.763 1122.120, 1375.923 1120.995, 1377.046 1120.819 C 1378.595 1120.577, 1377.167 1119.219, 1371.135 1115.199 L 1363.181 1109.899 1328.973 1109.974 C 1304.612 1110.028, 1294.366 1109.719, 1293.382 1108.902 C 1291.510 1107.349, 1291.341 1062.059, 1293.200 1060.200 C 1293.940 1059.460, 1297.568 1059, 1302.657 1059 L 1310.913 1059 1307.207 1053.570 C 1303.553 1048.218, 1303.421 1048.136, 1298 1047.820 L 1292.500 1047.500 1291.956 1038 C 1291.479 1029.681, 1291.015 1027.816, 1288.224 1023 C 1285.221 1017.819, 1285.034 1017.674, 1285.003 1020.500 C 1284.962 1024.146, 1283.619 1026.501, 1282.112 1025.569 C 1281.447 1025.158, 1281 1021.692, 1281 1016.953 C 1281 1010.229, 1280.484 1007.767, 1277.608 1000.762 C 1265.979 972.439, 1259.581 943.377, 1258.162 912.439 L 1257.500 898.009 1215.286 920.755 M 405 919 C 405 924.316, 405.237 925.101, 406.750 924.810 C 408.162 924.538, 408.500 923.417, 408.500 919 C 408.500 914.583, 408.162 913.462, 406.750 913.190 C 405.237 912.899, 405 913.684, 405 919 M 909 933 L 909 939 1020.406 939 C 1128.883 939, 1131.800 938.951, 1131.322 937.123 C 1130.933 935.637, 1132.359 934.392, 1138.166 931.147 L 1145.500 927.048 1027.250 927.024 L 909 927 909 933 M 405 943 C 405 948.316, 405.237 949.101, 406.750 948.810 C 408.162 948.538, 408.500 947.417, 408.500 943 C 408.500 938.583, 408.162 937.462, 406.750 937.190 C 405.237 936.899, 405 937.684, 405 943 M 1265.516 945.500 C 1267.930 965.781, 1279.296 998.431, 1292.495 1023 C 1329.349 1091.598, 1400.088 1141.573, 1476.086 1152.700 L 1487.671 1154.396 1492.836 1150.042 C 1495.676 1147.647, 1498 1145.307, 1498 1144.843 C 1498 1144.380, 1496.370 1144, 1494.378 1144 C 1492.386 1144, 1485.974 1143.298, 1480.128 1142.440 C 1434.831 1135.792, 1392.343 1117.269, 1356 1088.326 C 1345.117 1079.659, 1325.386 1059.935, 1316.660 1049 C 1294.284 1020.959, 1277.427 987.622, 1268.371 953.500 C 1266.395 946.054, 1265.175 942.636, 1265.516 945.500 M 946.681 951.652 C 946.307 952.027, 946 954.965, 946 958.181 C 946 963.703, 946.181 964.141, 949.250 966.023 C 951.038 967.120, 966.791 976.226, 984.257 986.259 L 1016.015 1004.500 1015.757 1014 L 1015.500 1023.500 1006.250 1023.788 L 997 1024.075 997 1164.038 L 997 1304 1003.473 1304 L 1009.947 1304 1010.238 1181.750 C 1010.564 1045.393, 1010.021 1055.773, 1017.612 1040.634 C 1026.792 1022.329, 1042.417 1009.960, 1064 1003.915 C 1066.475 1003.222, 1073.450 1002.663, 1079.500 1002.673 C 1098.940 1002.706, 1113.917 1008.886, 1127.513 1022.485 C 1139.790 1034.766, 1145.842 1046.869, 1148.021 1063.500 C 1148.530 1067.388, 1148.952 1122.426, 1148.969 1187.286 L 1149 1304.072 1158.750 1303.786 L 1168.500 1303.500 1168.500 1127.500 L 1168.500 951.500 1057.931 951.235 C 997.119 951.090, 947.056 951.277, 946.681 951.652 M 1328.047 958.683 C 1327.976 960.486, 1335.720 981.120, 1336.917 982.317 C 1339.369 984.769, 1338.787 981.790, 1335.372 974.404 C 1333.362 970.057, 1330.902 964.475, 1329.905 962 C 1328.909 959.525, 1328.073 958.033, 1328.047 958.683 M 1762.054 968.244 C 1757.105 984.884, 1744.167 1011.420, 1732.300 1029.273 C 1712.624 1058.876, 1689.565 1082.052, 1660.366 1101.573 C 1628.498 1122.879, 1595.717 1135.724, 1557.163 1142.013 L 1549.827 1143.210 1552.301 1145.855 C 1553.662 1147.310, 1555.081 1149.513, 1555.455 1150.750 C 1555.829 1151.987, 1556.547 1153, 1557.051 1153 C 1557.556 1153, 1563.263 1151.877, 1569.734 1150.505 C 1619.619 1139.926, 1663.252 1115.881, 1699.719 1078.871 C 1727.993 1050.178, 1749.654 1013.642, 1760.918 975.650 C 1762.687 969.683, 1763.951 964.618, 1763.727 964.394 C 1763.504 964.170, 1762.751 965.903, 1762.054 968.244 M 1339 987.550 C 1339 989.648, 1342.368 994, 1343.992 994 C 1345.889 994, 1345.886 993.922, 1343.867 990.500 C 1342.732 988.575, 1341.172 987, 1340.401 987 C 1339.631 987, 1339 987.247, 1339 987.550 M 1347.854 990.250 C 1349.738 993.235, 1350.419 993.541, 1356.203 994 L 1362.500 994.500 1363 1004.067 L 1363.500 1013.633 1368.750 1019.516 L 1374 1025.399 1374 1010.822 C 1374 999.706, 1374.325 995.975, 1375.369 995.109 C 1376.345 994.299, 1386.447 994.049, 1410.619 994.237 L 1444.500 994.500 1444.500 1021 L 1444.500 1047.500 1421.631 1047.769 L 1398.762 1048.038 1403.131 1051.304 C 1413.026 1058.700, 1412.215 1058.459, 1429 1059 L 1444.500 1059.500 1445 1067.404 L 1445.500 1075.308 1449.250 1076.601 L 1453 1077.895 1453 1032.448 L 1453 987 1399.402 987 L 1345.804 987 1347.854 990.250 M 353 1014 L 353 1020 378.948 1020 L 404.895 1020 405.198 1014.750 C 405.420 1010.884, 405.896 1009.500, 407 1009.500 C 408.104 1009.500, 408.580 1010.884, 408.802 1014.750 L 409.105 1020 710.552 1020 L 1012 1020 1012 1014 L 1012 1008 682.500 1008 L 353 1008 353 1014 M 372 1170 L 372 1304.050 388.241 1303.775 L 404.482 1303.500 405.001 1300.500 C 405.719 1296.345, 408.408 1296.541, 408.815 1300.778 L 409.131 1304.056 422.815 1303.778 L 436.500 1303.500 436.754 1174.057 C 436.954 1072.025, 437.271 1044.446, 438.254 1043.822 C 439.695 1042.907, 924.038 1042.694, 926.418 1043.607 C 927.849 1044.156, 928 1056.584, 928 1174.107 L 928 1304 960.504 1304 L 993.007 1304 992.754 1170.250 L 992.500 1036.500 700.808 1036.248 L 409.115 1035.997 408.808 1040.248 C 408.393 1045.982, 405.707 1046.160, 405 1040.500 L 404.500 1036.500 388.250 1036.225 L 372 1035.950 372 1170 M 1281.504 1038.137 C 1281.218 1038.887, 1281.101 1084.725, 1281.242 1140 L 1281.500 1240.500 1367.891 1240.756 C 1431.648 1240.944, 1454.643 1240.711, 1455.661 1239.866 C 1456.766 1238.949, 1456.987 1234.815, 1456.771 1219.123 C 1456.527 1201.477, 1456.328 1199.493, 1454.772 1199.194 C 1453.192 1198.890, 1453.021 1200.472, 1452.772 1217.681 L 1452.500 1236.500 1368.750 1236.756 L 1285 1237.011 1285 1138.128 C 1285 1051.801, 1284.811 1039.088, 1283.512 1038.010 C 1282.321 1037.022, 1281.920 1037.047, 1281.504 1038.137 M 405.437 1058.302 C 404.312 1061.236, 405.425 1068.500, 407 1068.500 C 408.946 1068.500, 409.182 1057.894, 407.251 1057.250 C 406.563 1057.021, 405.747 1057.495, 405.437 1058.302 M 458.443 1069.288 C 458.171 1069.997, 458.073 1077.985, 458.224 1087.038 L 458.500 1103.500 476.250 1103.773 L 494 1104.046 494 1086.023 L 494 1068 476.469 1068 C 463.087 1068, 458.820 1068.305, 458.443 1069.288 M 518 1086 L 518 1104 535.500 1104 L 553 1104 553 1086 L 553 1068 535.500 1068 L 518 1068 518 1086 M 577 1086 L 577 1104.046 594.750 1103.773 L 612.500 1103.500 612.500 1086 L 612.500 1068.500 594.750 1068.227 L 577 1067.954 577 1086 M 636 1086 L 636 1104 654 1104 L 672 1104 672 1086 L 672 1068 654 1068 L 636 1068 636 1086 M 695 1086 L 695 1104 713 1104 L 731 1104 731 1086 L 731 1068 713 1068 L 695 1068 695 1086 M 754.443 1069.288 C 754.171 1069.997, 754.073 1077.985, 754.224 1087.038 L 754.500 1103.500 772.250 1103.773 L 790 1104.046 790 1086.023 L 790 1068 772.469 1068 C 759.087 1068, 754.820 1068.305, 754.443 1069.288 M 814 1086 L 814 1104 831.500 1104 L 849 1104 849 1086 L 849 1068 831.500 1068 L 814 1068 814 1086 M 873 1086 L 873 1104 890.500 1104 L 908 1104 908 1086 L 908 1068 890.500 1068 L 873 1068 873 1086 M 405.437 1082.302 C 404.312 1085.236, 405.425 1092.500, 407 1092.500 C 408.946 1092.500, 409.182 1081.894, 407.251 1081.250 C 406.563 1081.021, 405.747 1081.495, 405.437 1082.302 M 1037.460 1085.250 C 1037.198 1085.938, 1037.100 1122.725, 1037.242 1167 C 1037.469 1237.774, 1037.681 1247.500, 1039 1247.500 C 1040.319 1247.500, 1040.531 1237.857, 1040.756 1167.737 L 1041.012 1087.974 1075.256 1088.237 L 1109.500 1088.500 1109.754 1197.822 C 1109.995 1301.217, 1110.104 1307.127, 1111.754 1306.809 C 1113.400 1306.492, 1113.516 1300.257, 1113.774 1197.486 C 1113.925 1137.544, 1113.804 1087.487, 1113.505 1086.250 L 1112.962 1084 1075.450 1084 C 1046.361 1084, 1037.830 1084.281, 1037.460 1085.250 M 405.437 1106.302 C 404.312 1109.236, 405.425 1116.500, 407 1116.500 C 408.946 1116.500, 409.182 1105.894, 407.251 1105.250 C 406.563 1105.021, 405.747 1105.495, 405.437 1106.302 M 1292.455 1122.258 C 1292.184 1122.964, 1292.083 1134.107, 1292.231 1147.021 L 1292.500 1170.500 1327.767 1170.763 L 1363.035 1171.026 1362.767 1146.263 L 1362.500 1121.500 1327.724 1121.237 C 1300.147 1121.028, 1292.845 1121.240, 1292.455 1122.258 M 458.443 1127.288 C 458.171 1127.997, 458.073 1135.985, 458.224 1145.038 L 458.500 1161.500 476.250 1161.773 L 494 1162.046 494 1144.023 L 494 1126 476.469 1126 C 463.087 1126, 458.820 1126.305, 458.443 1127.288 M 518 1144 L 518 1162 535.500 1162 L 553 1162 553 1144 L 553 1126 535.500 1126 L 518 1126 518 1144 M 577 1144 L 577 1162.046 594.750 1161.773 L 612.500 1161.500 612.500 1144 L 612.500 1126.500 594.750 1126.227 L 577 1125.954 577 1144 M 636 1144 L 636 1162 654 1162 L 672 1162 672 1144 L 672 1126 654 1126 L 636 1126 636 1144 M 695 1144 L 695 1162 713 1162 L 731 1162 731 1144 L 731 1126 713 1126 L 695 1126 695 1144 M 754.443 1127.288 C 754.171 1127.997, 754.073 1135.985, 754.224 1145.038 L 754.500 1161.500 772.250 1161.773 L 790 1162.046 790 1144.023 L 790 1126 772.469 1126 C 759.087 1126, 754.820 1126.305, 754.443 1127.288 M 814 1144 L 814 1162 831.500 1162 L 849 1162 849 1144 L 849 1126 831.500 1126 L 814 1126 814 1144 M 873 1144 L 873 1162 890.500 1162 L 908 1162 908 1144 L 908 1126 890.500 1126 L 873 1126 873 1144 M 405.437 1130.302 C 404.312 1133.236, 405.425 1140.500, 407 1140.500 C 408.946 1140.500, 409.182 1129.894, 407.251 1129.250 C 406.563 1129.021, 405.747 1129.495, 405.437 1130.302 M 405.437 1154.302 C 404.312 1157.236, 405.425 1164.500, 407 1164.500 C 408.946 1164.500, 409.182 1153.894, 407.251 1153.250 C 406.563 1153.021, 405.747 1153.495, 405.437 1154.302 M 1561.112 1156.081 C 1558.698 1156.555, 1556.547 1157.120, 1556.330 1157.337 C 1556.113 1157.553, 1556.249 1188.409, 1556.631 1225.904 L 1557.325 1294.078 1562.163 1296.393 L 1567 1298.708 1567 1226.854 C 1567 1187.334, 1566.662 1155.049, 1566.250 1155.110 C 1565.838 1155.170, 1563.525 1155.607, 1561.112 1156.081 M 1491.003 1209.250 C 1491.007 1273.552, 1491.708 1294, 1493.907 1294.001 C 1495.338 1294.001, 1495.478 1290.419, 1495.284 1258.751 C 1494.872 1191.565, 1493.926 1159, 1492.385 1159 C 1491.223 1159, 1491 1167.111, 1491.003 1209.250 M 405.437 1178.302 C 404.312 1181.236, 405.425 1188.500, 407 1188.500 C 408.946 1188.500, 409.182 1177.894, 407.251 1177.250 C 406.563 1177.021, 405.747 1177.495, 405.437 1178.302 M 1292.453 1184.262 C 1292.181 1184.970, 1292.081 1195.213, 1292.229 1207.025 L 1292.500 1228.500 1327.769 1228.763 L 1363.038 1229.026 1362.769 1206.263 L 1362.500 1183.500 1327.724 1183.237 C 1300.091 1183.028, 1292.846 1183.239, 1292.453 1184.262 M 1374.486 1185.250 C 1374.182 1186.487, 1374.061 1196.725, 1374.217 1208 L 1374.500 1228.500 1409.750 1228.763 L 1445 1229.026 1445 1206.013 L 1445 1183 1410.019 1183 L 1375.038 1183 1374.486 1185.250 M 458.667 1184.667 C 458.300 1185.033, 458 1193.133, 458 1202.667 L 458 1220 476 1220 L 494 1220 494 1202 L 494 1184 476.667 1184 C 467.133 1184, 459.033 1184.300, 458.667 1184.667 M 518 1202 L 518 1220 535.500 1220 L 553 1220 553 1202 L 553 1184 535.500 1184 L 518 1184 518 1202 M 577 1201.977 L 577 1220 595.023 1220 L 613.046 1220 612.773 1202.250 L 612.500 1184.500 594.750 1184.227 L 577 1183.954 577 1201.977 M 636 1201.977 L 636 1220 654.023 1220 L 672.046 1220 671.773 1202.250 L 671.500 1184.500 653.750 1184.227 L 636 1183.954 636 1201.977 M 695.689 1184.644 C 695.310 1185.023, 695 1193.133, 695 1202.667 L 695 1220 713.023 1220 L 731.046 1220 730.773 1202.250 L 730.500 1184.500 713.439 1184.227 C 704.056 1184.077, 696.069 1184.265, 695.689 1184.644 M 754.667 1184.667 C 754.300 1185.033, 754 1193.133, 754 1202.667 L 754 1220 772 1220 L 790 1220 790 1202 L 790 1184 772.667 1184 C 763.133 1184, 755.033 1184.300, 754.667 1184.667 M 814 1202 L 814 1220 831.500 1220 L 849 1220 849 1202 L 849 1184 831.500 1184 L 814 1184 814 1202 M 873 1202 L 873 1220 890.500 1220 L 908 1220 908 1202 L 908 1184 890.500 1184 L 873 1184 873 1202 M 405.437 1202.302 C 404.312 1205.236, 405.425 1212.500, 407 1212.500 C 408.946 1212.500, 409.182 1201.894, 407.251 1201.250 C 406.563 1201.021, 405.747 1201.495, 405.437 1202.302 M 405.437 1226.302 C 404.312 1229.236, 405.425 1236.500, 407 1236.500 C 408.946 1236.500, 409.182 1225.894, 407.251 1225.250 C 406.563 1225.021, 405.747 1225.495, 405.437 1226.302 M 458.667 1242.667 C 458.300 1243.033, 458 1251.133, 458 1260.667 L 458 1278 476 1278 L 494 1278 494 1260 L 494 1242 476.667 1242 C 467.133 1242, 459.033 1242.300, 458.667 1242.667 M 518 1260 L 518 1278 535.500 1278 L 553 1278 553 1260 L 553 1242 535.500 1242 L 518 1242 518 1260 M 577 1259.977 L 577 1278 595.023 1278 L 613.046 1278 612.773 1260.250 L 612.500 1242.500 594.750 1242.227 L 577 1241.954 577 1259.977 M 636 1259.977 L 636 1278 654.023 1278 L 672.046 1278 671.773 1260.250 L 671.500 1242.500 653.750 1242.227 L 636 1241.954 636 1259.977 M 695.689 1242.644 C 695.310 1243.023, 695 1251.133, 695 1260.667 L 695 1278 713.023 1278 L 731.046 1278 730.773 1260.250 L 730.500 1242.500 713.439 1242.227 C 704.056 1242.077, 696.069 1242.265, 695.689 1242.644 M 754.667 1242.667 C 754.300 1243.033, 754 1251.133, 754 1260.667 L 754 1278 772 1278 L 790 1278 790 1260 L 790 1242 772.667 1242 C 763.133 1242, 755.033 1242.300, 754.667 1242.667 M 814 1260 L 814 1278 831.500 1278 L 849 1278 849 1260 L 849 1242 831.500 1242 L 814 1242 814 1260 M 873 1260 L 873 1278 890.500 1278 L 908 1278 908 1260 L 908 1242 890.500 1242 L 873 1242 873 1260 M 405.437 1250.302 C 404.312 1253.236, 405.425 1260.500, 407 1260.500 C 408.946 1260.500, 409.182 1249.894, 407.251 1249.250 C 406.563 1249.021, 405.747 1249.495, 405.437 1250.302 M 405.437 1274.302 C 404.312 1277.236, 405.425 1284.500, 407 1284.500 C 408.946 1284.500, 409.182 1273.894, 407.251 1273.250 C 406.563 1273.021, 405.747 1273.495, 405.437 1274.302 M 405 1327 C 405 1332.316, 405.237 1333.101, 406.750 1332.810 C 408.162 1332.538, 408.500 1331.417, 408.500 1327 C 408.500 1322.583, 408.162 1321.462, 406.750 1321.190 C 405.237 1320.899, 405 1321.684, 405 1327 M 405 1351 C 405 1356.316, 405.237 1357.101, 406.750 1356.810 C 408.162 1356.538, 408.500 1355.417, 408.500 1351 C 408.500 1346.583, 408.162 1345.462, 406.750 1345.190 C 405.237 1344.899, 405 1345.684, 405 1351 M 404.516 1372.903 C 403.647 1378.048, 404.595 1381, 407.117 1381 C 408.899 1381, 409.069 1380.417, 408.800 1375.260 C 408.570 1370.868, 408.112 1369.446, 406.847 1369.205 C 405.614 1368.971, 405.022 1369.909, 404.516 1372.903 M 404.572 1394.674 C 404.219 1395.594, 404.221 1398.294, 404.578 1400.674 C 405.080 1404.017, 405.656 1405, 407.114 1405 C 408.753 1405, 409 1404.213, 409 1399 C 409 1393.780, 408.754 1393, 407.107 1393 C 406.066 1393, 404.925 1393.753, 404.572 1394.674 M 408.518 1416.970 C 407.604 1418.450, 412.051 1428, 413.655 1428 C 416.146 1428, 416.352 1424.904, 414.161 1420.394 C 412.137 1416.228, 409.839 1414.833, 408.518 1416.970 M 421.667 1436.667 C 420.042 1438.291, 421.301 1441.070, 424.982 1443.986 C 428.812 1447.019, 431 1447.258, 431 1444.644 C 431 1443.456, 423.991 1436, 422.875 1436 C 422.577 1436, 422.033 1436.300, 421.667 1436.667 M 440.667 1451.667 C 439.150 1453.183, 440.216 1454.789, 443.750 1456.312 C 449.523 1458.800, 451.454 1458.823, 451.799 1456.405 C 452.036 1454.747, 451.194 1453.964, 447.766 1452.655 C 443.026 1450.845, 441.677 1450.657, 440.667 1451.667 M 463 1459 C 463 1460.935, 463.477 1461.073, 469.250 1460.798 C 474.007 1460.571, 475.500 1460.142, 475.500 1459 C 475.500 1457.858, 474.007 1457.429, 469.250 1457.202 C 463.477 1456.927, 463 1457.065, 463 1459 M 487.475 1458.040 C 486.201 1460.101, 488.640 1461.119, 494.107 1460.807 C 498.098 1460.580, 499.500 1460.110, 499.500 1459 C 499.500 1457.121, 488.582 1456.250, 487.475 1458.040 M 511.475 1458.040 C 510.201 1460.101, 512.640 1461.119, 518.107 1460.807 C 522.098 1460.580, 523.500 1460.110, 523.500 1459 C 523.500 1457.121, 512.582 1456.250, 511.475 1458.040 M 535.475 1458.040 C 534.201 1460.101, 536.640 1461.119, 542.107 1460.807 C 546.098 1460.580, 547.500 1460.110, 547.500 1459 C 547.500 1457.121, 536.582 1456.250, 535.475 1458.040 M 559.475 1458.040 C 558.201 1460.101, 560.640 1461.119, 566.107 1460.807 C 570.098 1460.580, 571.500 1460.110, 571.500 1459 C 571.500 1457.121, 560.582 1456.250, 559.475 1458.040 M 583.475 1458.040 C 582.201 1460.101, 584.640 1461.119, 590.107 1460.807 C 594.098 1460.580, 595.500 1460.110, 595.500 1459 C 595.500 1457.121, 584.582 1456.250, 583.475 1458.040 M 607.475 1458.040 C 606.201 1460.101, 608.640 1461.119, 614.107 1460.807 C 618.098 1460.580, 619.500 1460.110, 619.500 1459 C 619.500 1457.121, 608.582 1456.250, 607.475 1458.040 M 631.475 1458.040 C 630.201 1460.101, 632.640 1461.119, 638.107 1460.807 C 642.098 1460.580, 643.500 1460.110, 643.500 1459 C 643.500 1457.121, 632.582 1456.250, 631.475 1458.040 M 655.475 1458.040 C 654.201 1460.101, 656.640 1461.119, 662.107 1460.807 C 666.098 1460.580, 667.500 1460.110, 667.500 1459 C 667.500 1457.121, 656.582 1456.250, 655.475 1458.040 M 679.475 1458.040 C 678.201 1460.101, 680.640 1461.119, 686.107 1460.807 C 690.098 1460.580, 691.500 1460.110, 691.500 1459 C 691.500 1457.121, 680.582 1456.250, 679.475 1458.040 M 703.475 1458.040 C 702.201 1460.101, 704.640 1461.119, 710.107 1460.807 C 714.098 1460.580, 715.500 1460.110, 715.500 1459 C 715.500 1457.121, 704.582 1456.250, 703.475 1458.040 M 727.475 1458.040 C 726.201 1460.101, 728.640 1461.119, 734.107 1460.807 C 738.098 1460.580, 739.500 1460.110, 739.500 1459 C 739.500 1457.121, 728.582 1456.250, 727.475 1458.040 M 751.475 1458.040 C 750.201 1460.101, 752.640 1461.119, 758.107 1460.807 C 762.098 1460.580, 763.500 1460.110, 763.500 1459 C 763.500 1457.121, 752.582 1456.250, 751.475 1458.040 M 775.475 1458.040 C 774.201 1460.101, 776.640 1461.119, 782.107 1460.807 C 786.098 1460.580, 787.500 1460.110, 787.500 1459 C 787.500 1457.121, 776.582 1456.250, 775.475 1458.040 M 799.475 1458.040 C 798.201 1460.101, 800.640 1461.119, 806.107 1460.807 C 810.098 1460.580, 811.500 1460.110, 811.500 1459 C 811.500 1457.121, 800.582 1456.250, 799.475 1458.040 M 823.475 1458.040 C 822.201 1460.101, 824.640 1461.119, 830.107 1460.807 C 834.098 1460.580, 835.500 1460.110, 835.500 1459 C 835.500 1457.121, 824.582 1456.250, 823.475 1458.040 M 847.475 1458.040 C 846.201 1460.101, 848.640 1461.119, 854.107 1460.807 C 858.098 1460.580, 859.500 1460.110, 859.500 1459 C 859.500 1457.121, 848.582 1456.250, 847.475 1458.040 M 871.475 1458.040 C 870.201 1460.101, 872.640 1461.119, 878.107 1460.807 C 882.098 1460.580, 883.500 1460.110, 883.500 1459 C 883.500 1457.121, 872.582 1456.250, 871.475 1458.040 M 895.475 1458.040 C 894.201 1460.101, 896.640 1461.119, 902.107 1460.807 C 906.098 1460.580, 907.500 1460.110, 907.500 1459 C 907.500 1457.121, 896.582 1456.250, 895.475 1458.040 M 919.475 1458.040 C 918.201 1460.101, 920.640 1461.119, 926.107 1460.807 C 930.098 1460.580, 931.500 1460.110, 931.500 1459 C 931.500 1457.121, 920.582 1456.250, 919.475 1458.040 M 943.475 1458.040 C 942.201 1460.101, 944.640 1461.119, 950.107 1460.807 C 954.098 1460.580, 955.500 1460.110, 955.500 1459 C 955.500 1457.121, 944.582 1456.250, 943.475 1458.040 M 967.475 1458.040 C 966.201 1460.101, 968.640 1461.119, 974.107 1460.807 C 978.098 1460.580, 979.500 1460.110, 979.500 1459 C 979.500 1457.121, 968.582 1456.250, 967.475 1458.040 M 991.475 1458.040 C 990.201 1460.101, 992.640 1461.119, 998.107 1460.807 C 1002.098 1460.580, 1003.500 1460.110, 1003.500 1459 C 1003.500 1457.121, 992.582 1456.250, 991.475 1458.040 M 1015.500 1458 C 1014.255 1460.015, 1016.245 1461, 1021.559 1461 C 1026.333 1461, 1027 1460.755, 1027 1459 C 1027 1457.245, 1026.333 1457, 1021.559 1457 C 1018.566 1457, 1015.840 1457.450, 1015.500 1458 M 1039.500 1458 C 1038.255 1460.015, 1040.245 1461, 1045.559 1461 C 1050.333 1461, 1051 1460.755, 1051 1459 C 1051 1457.245, 1050.333 1457, 1045.559 1457 C 1042.566 1457, 1039.840 1457.450, 1039.500 1458 M 1063.500 1458 C 1062.255 1460.015, 1064.245 1461, 1069.559 1461 C 1074.333 1461, 1075 1460.755, 1075 1459 C 1075 1457.245, 1074.333 1457, 1069.559 1457 C 1066.566 1457, 1063.840 1457.450, 1063.500 1458 M 1087.500 1458 C 1086.255 1460.015, 1088.245 1461, 1093.559 1461 C 1098.333 1461, 1099 1460.755, 1099 1459 C 1099 1457.245, 1098.333 1457, 1093.559 1457 C 1090.566 1457, 1087.840 1457.450, 1087.500 1458 M 1111.500 1458 C 1110.255 1460.015, 1112.245 1461, 1117.559 1461 C 1122.333 1461, 1123 1460.755, 1123 1459 C 1123 1457.245, 1122.333 1457, 1117.559 1457 C 1114.566 1457, 1111.840 1457.450, 1111.500 1458 M 1135.500 1458 C 1134.255 1460.015, 1136.245 1461, 1141.559 1461 C 1146.333 1461, 1147 1460.755, 1147 1459 C 1147 1457.245, 1146.333 1457, 1141.559 1457 C 1138.566 1457, 1135.840 1457.450, 1135.500 1458 M 1159.500 1458 C 1158.255 1460.015, 1160.245 1461, 1165.559 1461 C 1170.333 1461, 1171 1460.755, 1171 1459 C 1171 1457.245, 1170.333 1457, 1165.559 1457 C 1162.566 1457, 1159.840 1457.450, 1159.500 1458 M 1183.500 1458 C 1182.255 1460.015, 1184.245 1461, 1189.559 1461 C 1194.333 1461, 1195 1460.755, 1195 1459 C 1195 1457.245, 1194.333 1457, 1189.559 1457 C 1186.566 1457, 1183.840 1457.450, 1183.500 1458 M 1207.500 1458 C 1206.255 1460.015, 1208.245 1461, 1213.559 1461 C 1218.333 1461, 1219 1460.755, 1219 1459 C 1219 1457.245, 1218.333 1457, 1213.559 1457 C 1210.566 1457, 1207.840 1457.450, 1207.500 1458 M 1287 1459 C 1287 1460.924, 1287.480 1461.075, 1292.750 1460.800 C 1297.061 1460.575, 1298.500 1460.125, 1298.500 1459 C 1298.500 1457.875, 1297.061 1457.425, 1292.750 1457.200 C 1287.480 1456.925, 1287 1457.076, 1287 1459 M 1311 1459 C 1311 1460.924, 1311.480 1461.075, 1316.750 1460.800 C 1321.061 1460.575, 1322.500 1460.125, 1322.500 1459 C 1322.500 1457.875, 1321.061 1457.425, 1316.750 1457.200 C 1311.480 1456.925, 1311 1457.076, 1311 1459 M 1335 1459 C 1335 1460.924, 1335.480 1461.075, 1340.750 1460.800 C 1345.061 1460.575, 1346.500 1460.125, 1346.500 1459 C 1346.500 1457.875, 1345.061 1457.425, 1340.750 1457.200 C 1335.480 1456.925, 1335 1457.076, 1335 1459 M 1359 1459 C 1359 1460.924, 1359.480 1461.075, 1364.750 1460.800 C 1369.061 1460.575, 1370.500 1460.125, 1370.500 1459 C 1370.500 1457.875, 1369.061 1457.425, 1364.750 1457.200 C 1359.480 1456.925, 1359 1457.076, 1359 1459" stroke="none" fill="#12469d" fill-rule="evenodd"/><path d="M 753.500 346.161 C 737.535 349.154, 726.086 355.154, 718.831 364.333 C 713.198 371.459, 710.812 376.602, 705.995 392.003 C 700.828 408.521, 698.008 413.955, 692.641 417.731 C 684.413 423.519, 677.141 424.554, 666 421.521 C 653.347 418.077, 644.482 420.166, 634.794 428.874 C 629.198 433.905, 625.506 440.821, 622.449 452 C 616.153 475.020, 610.058 477.558, 581.500 469.052 C 564.541 464, 556.585 463.107, 548.778 465.376 C 541.407 467.519, 529.650 476.280, 520 486.822 C 515.282 491.975, 511.387 495.316, 509.500 495.829 C 507.714 496.314, 503.263 496.126, 498.500 495.365 C 483.555 492.975, 472.699 492.574, 467.835 494.231 C 465.398 495.061, 457.005 500.187, 449.182 505.620 L 434.960 515.500 701.670 515.752 C 914.378 515.953, 968.541 515.750, 969.175 514.752 C 970.468 512.715, 970.114 506.692, 968.408 501.684 C 966.161 495.088, 959.354 487.955, 951.285 483.741 C 942.471 479.136, 938.522 478.053, 926.936 477.062 C 910.036 475.616, 907.513 472.751, 909.635 457.421 C 911.646 442.889, 909.681 435.259, 901.630 426.337 C 896.641 420.808, 884.614 412.576, 875.865 408.700 L 870.500 406.324 868.707 399.312 C 866.486 390.628, 859.450 378.074, 853.209 371.660 C 840.112 358.201, 823.506 350.416, 799.500 346.483 C 789.446 344.835, 761.611 344.641, 753.500 346.161 M 1282 367.519 C 1251.764 371.268, 1223.091 380.350, 1190.500 396.503 C 1141.174 420.949, 1100.576 451.275, 1041.029 508.155 C 1008.650 539.085, 997.174 551, 999.766 551 C 1001.333 551, 1002 551.597, 1002 553 C 1002 554.682, 1001.333 555, 997.813 555 C 993.694 555, 993.250 555.371, 970.563 577.787 C 896.469 650.995, 860.599 676.404, 805.262 694.878 C 777.726 704.071, 756.353 709.126, 727 713.389 C 696.889 717.761, 682.195 718.229, 598.500 717.475 C 517.662 716.748, 507.882 717.046, 479.500 721.102 C 446.385 725.834, 419.045 733.993, 389.500 747.961 C 331.109 775.567, 280.898 820.201, 246.896 874.728 C 221.766 915.029, 205.838 960.831, 198.467 1014 C 196.269 1029.850, 195.414 1072.143, 196.925 1090.207 C 198.916 1113.998, 203.574 1139.916, 210.093 1163.463 C 221.810 1205.792, 247.398 1255.576, 274.159 1288.114 C 301.380 1321.210, 340.838 1348.667, 388 1367.330 C 403.566 1373.490, 405 1373.803, 405 1371.035 C 405 1367.740, 408.420 1368.823, 408.815 1372.244 C 409.105 1374.752, 409.903 1375.213, 418.815 1378.014 C 461.338 1391.381, 524.677 1401.726, 584 1404.993 C 594.725 1405.584, 605.300 1406.302, 607.500 1406.588 C 609.700 1406.875, 671.800 1407.488, 745.500 1407.950 C 884.463 1408.822, 881.622 1408.733, 905 1412.944 C 923.204 1416.224, 946.101 1423.435, 964.295 1431.620 C 972.777 1435.435, 996.689 1448.392, 1007.881 1455.236 C 1012.410 1458.006, 1014.572 1458.828, 1015.331 1458.069 C 1015.919 1457.481, 1018.785 1457, 1021.700 1457 C 1026.333 1457, 1027 1457.252, 1027 1459 C 1027 1460.716, 1026.333 1461, 1022.297 1461 L 1017.595 1461 1027.547 1467.151 C 1096.149 1509.545, 1146.368 1528.823, 1221 1541.413 C 1256.322 1547.372, 1287.750 1550.312, 1335.755 1552.149 C 1380.697 1553.869, 1414.711 1551.930, 1449.500 1545.662 L 1461.500 1543.500 1462 1428 C 1462.396 1336.480, 1462.767 1312.033, 1463.785 1310.250 L 1465.070 1308 1252.785 1308 L 1040.500 1308.001 1040.500 1285.250 C 1040.500 1265.694, 1040.289 1262.500, 1039 1262.500 C 1037.711 1262.500, 1037.500 1265.694, 1037.500 1285.250 L 1037.500 1308.001 722.500 1308.080 C 385.033 1308.164, 371.515 1308.135, 369.390 1307.320 C 368.212 1306.867, 368 1285.199, 368 1165.393 L 368 1024 358.500 1024 L 349 1024 349.029 1014.250 L 349.057 1004.500 377.012 988.500 L 404.967 972.500 404.984 966.677 C 404.998 961.675, 405.247 960.900, 406.750 961.186 C 407.975 961.418, 408.650 962.759, 409 965.653 L 409.500 969.788 545.948 890.956 L 682.396 812.123 688.448 815.507 L 694.500 818.891 843.500 732.825 C 925.450 685.489, 993.175 646.575, 994 646.349 C 994.825 646.124, 1057.806 681.919, 1133.957 725.895 L 1272.414 805.850 1277.060 794.175 C 1295.631 747.517, 1327.484 706.279, 1366.500 678.385 C 1399.983 654.447, 1438.355 639.004, 1481 632.306 C 1497.162 629.768, 1537.630 629.767, 1554 632.305 C 1622.459 642.919, 1679.748 676.505, 1721.909 730.745 C 1753.455 771.328, 1771.498 820.543, 1774.979 875.500 C 1776.839 904.863, 1776.096 922.256, 1771.983 945.636 C 1767.364 971.894, 1761.186 990.719, 1749.058 1015.500 C 1735.952 1042.279, 1721.263 1062.903, 1700.579 1083.567 C 1678.521 1105.603, 1659.674 1119.096, 1631.500 1133.023 C 1612.825 1142.254, 1599.930 1147.141, 1582 1151.782 L 1571.500 1154.500 1571.244 1228.311 L 1570.987 1302.122 1573.744 1306.811 L 1576.500 1311.500 1577 1404.717 L 1577.500 1497.933 1591.500 1488.557 C 1612.530 1474.473, 1625.468 1463.655, 1647.107 1442.064 C 1684.902 1404.353, 1709.529 1369.883, 1734.904 1319.177 C 1765.752 1257.536, 1788.642 1178.161, 1798.400 1099 C 1802.754 1063.673, 1803.472 1049.599, 1803.476 999.500 C 1803.480 949.476, 1802.974 939.021, 1798.910 905 C 1784.665 785.770, 1740.563 672.690, 1670.598 576 C 1637.666 530.489, 1592.130 483.412, 1551.500 452.871 C 1489.377 406.174, 1413.431 374.546, 1346.567 367.524 C 1329.120 365.692, 1296.757 365.689, 1282 367.519 M 1015.186 552.750 C 1015.443 554.103, 1016.709 554.569, 1020.759 554.802 C 1025.476 555.074, 1026 554.899, 1026 553.052 C 1026 551.228, 1025.381 551, 1020.427 551 C 1015.659 551, 1014.901 551.253, 1015.186 552.750 M 1039.186 552.750 C 1039.443 554.103, 1040.709 554.569, 1044.759 554.802 C 1049.476 555.074, 1050 554.899, 1050 553.052 C 1050 551.228, 1049.381 551, 1044.427 551 C 1039.659 551, 1038.901 551.253, 1039.186 552.750 M 1063.186 552.750 C 1063.443 554.103, 1064.709 554.569, 1068.759 554.802 C 1073.476 555.074, 1074 554.899, 1074 553.052 C 1074 551.228, 1073.381 551, 1068.427 551 C 1063.659 551, 1062.901 551.253, 1063.186 552.750 M 1087.186 552.750 C 1087.443 554.103, 1088.709 554.569, 1092.759 554.802 C 1097.476 555.074, 1098 554.899, 1098 553.052 C 1098 551.228, 1097.381 551, 1092.427 551 C 1087.659 551, 1086.901 551.253, 1087.186 552.750 M 1111.186 552.750 C 1111.443 554.103, 1112.709 554.569, 1116.759 554.802 C 1121.476 555.074, 1122 554.899, 1122 553.052 C 1122 551.228, 1121.381 551, 1116.427 551 C 1111.659 551, 1110.901 551.253, 1111.186 552.750 M 1135.186 552.750 C 1135.443 554.103, 1136.709 554.569, 1140.759 554.802 C 1145.476 555.074, 1146 554.899, 1146 553.052 C 1146 551.228, 1145.381 551, 1140.427 551 C 1135.659 551, 1134.901 551.253, 1135.186 552.750 M 1159.186 552.750 C 1159.443 554.103, 1160.709 554.569, 1164.759 554.802 C 1169.476 555.074, 1170 554.899, 1170 553.052 C 1170 551.228, 1169.381 551, 1164.427 551 C 1159.659 551, 1158.901 551.253, 1159.186 552.750 M 1183.190 552.750 C 1183.457 554.137, 1184.559 554.500, 1188.500 554.500 C 1192.441 554.500, 1193.543 554.137, 1193.810 552.750 C 1194.098 551.250, 1193.339 551, 1188.500 551 C 1183.661 551, 1182.902 551.250, 1183.190 552.750 M 1207.190 552.750 C 1207.457 554.137, 1208.559 554.500, 1212.500 554.500 C 1216.441 554.500, 1217.543 554.137, 1217.810 552.750 C 1218.098 551.250, 1217.339 551, 1212.500 551 C 1207.661 551, 1206.902 551.250, 1207.190 552.750 M 1231.190 552.750 C 1231.457 554.137, 1232.559 554.500, 1236.500 554.500 C 1240.441 554.500, 1241.543 554.137, 1241.810 552.750 C 1242.098 551.250, 1241.339 551, 1236.500 551 C 1231.661 551, 1230.902 551.250, 1231.190 552.750 M 1255.190 552.750 C 1255.457 554.137, 1256.559 554.500, 1260.500 554.500 C 1264.441 554.500, 1265.543 554.137, 1265.810 552.750 C 1266.098 551.250, 1265.339 551, 1260.500 551 C 1255.661 551, 1254.902 551.250, 1255.190 552.750 M 1279.190 552.750 C 1279.457 554.137, 1280.559 554.500, 1284.500 554.500 C 1288.441 554.500, 1289.543 554.137, 1289.810 552.750 C 1290.098 551.250, 1289.339 551, 1284.500 551 C 1279.661 551, 1278.902 551.250, 1279.190 552.750 M 1303.190 552.750 C 1303.457 554.137, 1304.559 554.500, 1308.500 554.500 C 1312.441 554.500, 1313.543 554.137, 1313.810 552.750 C 1314.098 551.250, 1313.339 551, 1308.500 551 C 1303.661 551, 1302.902 551.250, 1303.190 552.750 M 1327.190 552.750 C 1327.457 554.137, 1328.559 554.500, 1332.500 554.500 C 1336.441 554.500, 1337.543 554.137, 1337.810 552.750 C 1338.098 551.250, 1337.339 551, 1332.500 551 C 1327.661 551, 1326.902 551.250, 1327.190 552.750 M 1351.190 552.750 C 1351.457 554.137, 1352.559 554.500, 1356.500 554.500 C 1360.441 554.500, 1361.543 554.137, 1361.810 552.750 C 1362.098 551.250, 1361.339 551, 1356.500 551 C 1351.661 551, 1350.902 551.250, 1351.190 552.750 M 1375.186 552.750 C 1375.443 554.103, 1376.709 554.569, 1380.759 554.802 C 1385.476 555.074, 1386 554.899, 1386 553.052 C 1386 551.228, 1385.381 551, 1380.427 551 C 1375.659 551, 1374.901 551.253, 1375.186 552.750 M 1399.186 552.750 C 1399.443 554.103, 1400.709 554.569, 1404.759 554.802 C 1409.476 555.074, 1410 554.899, 1410 553.052 C 1410 551.228, 1409.381 551, 1404.427 551 C 1399.659 551, 1398.901 551.253, 1399.186 552.750 M 1423.186 552.750 C 1423.443 554.103, 1424.709 554.569, 1428.759 554.802 C 1433.476 555.074, 1434 554.899, 1434 553.052 C 1434 551.228, 1433.381 551, 1428.427 551 C 1423.659 551, 1422.901 551.253, 1423.186 552.750 M 1447.186 552.750 C 1447.443 554.103, 1448.709 554.569, 1452.759 554.802 C 1457.476 555.074, 1458 554.899, 1458 553.052 C 1458 551.228, 1457.381 551, 1452.427 551 C 1447.659 551, 1446.901 551.253, 1447.186 552.750 M 1470.870 554.656 C 1469.380 556.451, 1470.510 557.394, 1476.282 559.171 C 1478.992 560.006, 1480.371 560.029, 1481.145 559.255 C 1482.766 557.634, 1481.483 556.353, 1476.555 554.673 C 1472.612 553.330, 1471.973 553.328, 1470.870 554.656 M 1492.165 565.301 C 1490.537 567.263, 1498.429 574.971, 1500.226 573.174 C 1501.755 571.645, 1500.596 569.601, 1496.335 566.315 C 1493.830 564.384, 1493.078 564.201, 1492.165 565.301 M 1507 583.973 C 1507 585.649, 1511.356 594, 1512.231 594 C 1514.048 594, 1514.163 590.688, 1512.476 586.946 C 1511.335 584.417, 1510.033 583, 1508.848 583 C 1507.832 583, 1507 583.438, 1507 583.973 M 1515.258 606.238 C 1513.740 608.140, 1515.159 616.500, 1517 616.500 C 1519.086 616.500, 1519.659 607.792, 1517.681 606.150 C 1516.591 605.246, 1516.034 605.266, 1515.258 606.238 M 1504 632.663 C 1468.609 636.132, 1445.689 641.544, 1419.823 652.541 C 1389.072 665.615, 1361.429 684.252, 1339.126 706.944 C 1317.930 728.511, 1303.772 748.454, 1290.458 775.500 C 1272.821 811.327, 1264.909 845.510, 1264.881 886 C 1264.859 917.046, 1268.414 939.227, 1278.102 968.500 C 1289.786 1003.804, 1309.493 1035.969, 1336.546 1063.892 C 1378.515 1107.210, 1431.513 1133.014, 1493 1140.068 C 1507.709 1141.756, 1538.940 1140.732, 1554.931 1138.037 C 1621.396 1126.839, 1679.139 1091.697, 1718.483 1038.500 C 1729.239 1023.956, 1733.445 1017.082, 1741.780 1000.420 C 1790.571 902.880, 1771.724 785.031, 1695.021 708.043 C 1655.538 668.414, 1609.627 644.824, 1554 635.584 C 1537.024 632.764, 1515.686 631.518, 1504 632.663 M 1506.500 679.652 C 1496.352 680.466, 1476.205 684.223, 1466.198 687.168 C 1401.481 706.210, 1350.714 754.178, 1327.730 818 C 1325.254 824.875, 1322.467 834.325, 1321.537 839 C 1320.607 843.675, 1319.178 848.912, 1318.362 850.639 C 1316.780 853.984, 1314.032 863.599, 1314.012 865.857 C 1314.005 866.603, 1314.563 866.998, 1315.250 866.735 C 1316.231 866.359, 1316.500 872.092, 1316.500 893.378 C 1316.500 922.104, 1317.326 931.035, 1321.554 948 C 1325.085 962.171, 1327.335 968.034, 1334.518 981.795 C 1341.897 995.933, 1347.101 1004, 1356.181 1015.377 C 1361.392 1021.906, 1362.556 1022.909, 1362.984 1021.238 C 1363.428 1019.505, 1364.235 1020.054, 1368.750 1025.160 C 1371.638 1028.426, 1374 1031.940, 1374 1032.968 C 1374 1035.451, 1387.800 1048, 1390.530 1048 C 1392.808 1048, 1405.500 1057.298, 1405.500 1058.967 C 1405.500 1061.243, 1435.173 1076.624, 1444.300 1079.080 C 1446.610 1079.701, 1449.836 1080.900, 1451.470 1081.744 C 1459.257 1085.768, 1488.968 1092.238, 1507.112 1093.861 C 1528.164 1095.745, 1559.266 1090.393, 1584.955 1080.466 C 1634.697 1061.245, 1674.551 1023.941, 1698.128 974.535 C 1700.762 969.016, 1702.935 964.759, 1702.958 965.075 C 1703.053 966.375, 1698.121 979.843, 1696.100 983.803 C 1693.506 988.889, 1691.886 993, 1692.476 993 C 1693.304 993, 1699.950 980.371, 1704.380 970.380 C 1709.823 958.103, 1713.393 945.321, 1715.658 930 C 1718.080 913.621, 1718.043 872.780, 1715.593 857.500 C 1703.447 781.767, 1655.140 721.044, 1585 693.341 C 1561.331 683.993, 1527.004 678.007, 1506.500 679.652 M 1501.572 684.035 C 1480.913 686.385, 1454.735 693.769, 1436.500 702.391 C 1393.864 722.551, 1358.733 757.948, 1338.986 800.643 C 1334.863 809.556, 1328.691 826.025, 1329.261 826.594 C 1329.429 826.762, 1331.490 822.535, 1333.841 817.200 C 1352.893 773.968, 1387.512 737.245, 1428.590 716.689 C 1474.821 693.555, 1520.809 688.553, 1566.474 701.690 C 1571.420 703.113, 1580.119 706.025, 1585.805 708.161 C 1634.776 726.555, 1677.669 767.438, 1699.159 816.200 C 1701.510 821.535, 1703.560 825.773, 1703.715 825.619 C 1704.302 825.032, 1699.068 810.987, 1694.889 801.935 C 1672.538 753.521, 1633.838 716.856, 1584.228 697.091 C 1558.082 686.674, 1524.715 681.404, 1501.572 684.035 M 1502.500 698.707 C 1495.651 699.183, 1478.372 702.640, 1467.500 705.710 C 1417.827 719.739, 1374.940 752.959, 1348.347 798.004 C 1342.872 807.278, 1334.598 824.341, 1335.828 823.823 C 1336.249 823.645, 1343.934 819.523, 1352.905 814.662 C 1361.876 809.800, 1369.954 806.017, 1370.858 806.255 C 1372.858 806.780, 1607.102 933.817, 1608.470 935.118 C 1609.088 935.705, 1608.223 938.299, 1606.085 942.270 C 1600.246 953.112, 1601.484 952.976, 1586 944.476 L 1572.500 937.065 1571.808 940.783 C 1571.033 944.940, 1570.722 1081, 1571.486 1081 C 1571.754 1081, 1576.592 1079.263, 1582.236 1077.141 C 1630.577 1058.965, 1671.897 1020.747, 1693.748 974 C 1702.767 954.703, 1708.199 936.473, 1711.409 914.720 C 1719.127 862.426, 1695.981 799.276, 1653.929 757.891 C 1635.563 739.817, 1619.753 728.575, 1598 718.121 C 1566.650 703.056, 1534.378 696.495, 1502.500 698.707 M 405 751 C 405 756.316, 405.237 757.101, 406.750 756.810 C 408.162 756.538, 408.500 755.417, 408.500 751 C 408.500 746.583, 408.162 745.462, 406.750 745.190 C 405.237 744.899, 405 745.684, 405 751 M 405 775 C 405 780.316, 405.237 781.101, 406.750 780.810 C 408.162 780.538, 408.500 779.417, 408.500 775 C 408.500 770.583, 408.162 769.462, 406.750 769.190 C 405.237 768.899, 405 769.684, 405 775 M 405 799 C 405 804.316, 405.237 805.101, 406.750 804.810 C 408.162 804.538, 408.500 803.417, 408.500 799 C 408.500 794.583, 408.162 793.462, 406.750 793.190 C 405.237 792.899, 405 793.684, 405 799 M 1351.076 820.357 L 1332.651 830.500 1330.333 837.424 C 1329.058 841.232, 1328.209 844.542, 1328.447 844.780 C 1328.684 845.018, 1338.154 840.180, 1349.489 834.030 L 1370.100 822.848 1463.800 873.598 C 1515.335 901.511, 1566.846 929.413, 1578.270 935.602 L 1599.040 946.855 1601.502 941.996 L 1603.964 937.137 1566.732 916.892 C 1493.349 876.990, 1369.678 810.002, 1369.590 810.107 C 1369.540 810.166, 1361.209 814.778, 1351.076 820.357 M 405 823 C 405 828.316, 405.237 829.101, 406.750 828.810 C 408.162 828.538, 408.500 827.417, 408.500 823 C 408.500 818.583, 408.162 817.462, 406.750 817.190 C 405.237 816.899, 405 817.684, 405 823 M 1346.390 849.682 L 1323.280 862.288 1321.639 873.894 C 1319.495 889.056, 1319.584 901.725, 1321.938 916.500 C 1325.534 939.068, 1330.971 957.059, 1339.314 974 L 1343.500 982.500 1399.750 982.758 C 1443.734 982.960, 1456.003 983.287, 1456.014 984.258 C 1456.022 984.941, 1456.135 1006.633, 1456.264 1032.463 L 1456.500 1079.426 1465.500 1082.234 C 1475.867 1085.469, 1492.028 1088.498, 1506.686 1089.954 C 1520.971 1091.372, 1542.225 1089.162, 1560.750 1084.333 L 1567 1082.703 1566.977 1013.102 L 1566.954 943.500 1552.727 935.880 C 1544.902 931.688, 1500.981 907.915, 1455.125 883.050 C 1409.268 858.185, 1371.243 837.669, 1370.625 837.459 C 1370.006 837.249, 1359.100 842.749, 1346.390 849.682 M 405 847 C 405 852.316, 405.237 853.101, 406.750 852.810 C 408.162 852.538, 408.500 851.417, 408.500 847 C 408.500 842.583, 408.162 841.462, 406.750 841.190 C 405.237 840.899, 405 841.684, 405 847 M 405 871 C 405 876.316, 405.237 877.101, 406.750 876.810 C 408.162 876.538, 408.500 875.417, 408.500 871 C 408.500 866.583, 408.162 865.462, 406.750 865.190 C 405.237 864.899, 405 865.684, 405 871 M 1224 889.365 C 1205.575 899.399, 1178.245 914.251, 1163.266 922.369 L 1136.031 937.128 1138.548 942.095 L 1141.065 947.062 1147.282 943.608 C 1150.702 941.708, 1176.897 927.485, 1205.494 912 C 1234.090 896.515, 1257.687 883.646, 1257.931 883.402 C 1258.811 882.523, 1259.220 871.001, 1258.370 871.061 C 1257.892 871.094, 1242.425 879.331, 1224 889.365 M 405 895 C 405 900.316, 405.237 901.101, 406.750 900.810 C 408.162 900.538, 408.500 899.417, 408.500 895 C 408.500 890.583, 408.162 889.462, 406.750 889.190 C 405.237 888.899, 405 889.684, 405 895 M 1215.286 920.755 L 1173.071 943.500 1173.036 1123.750 L 1173 1304 1319.965 1304 L 1466.930 1304 1470.215 1301.147 C 1474.619 1297.322, 1476.889 1296.217, 1483.077 1294.890 L 1488.307 1293.768 1487.654 1275.724 C 1487.294 1265.799, 1487 1235.346, 1487 1208.049 L 1487 1158.418 1473.750 1156.217 C 1466.463 1155.006, 1459.600 1153.899, 1458.500 1153.758 C 1456.599 1153.513, 1456.490 1154.140, 1456.290 1166.500 C 1456.175 1173.650, 1456.063 1180.063, 1456.040 1180.750 C 1456.018 1181.438, 1455.325 1182, 1454.500 1182 C 1453.234 1182, 1453 1179.674, 1453 1167.067 C 1453 1152.991, 1452.885 1152.102, 1451 1151.567 C 1449.900 1151.255, 1448.100 1150.745, 1447 1150.433 C 1445.090 1149.891, 1445 1150.343, 1445 1160.445 L 1445 1171.026 1409.750 1170.763 L 1374.500 1170.500 1374.218 1148 C 1374.062 1135.625, 1374.176 1124.519, 1374.469 1123.319 C 1374.763 1122.120, 1375.923 1120.995, 1377.046 1120.819 C 1378.595 1120.577, 1377.167 1119.219, 1371.135 1115.199 L 1363.181 1109.899 1328.973 1109.974 C 1304.612 1110.028, 1294.366 1109.719, 1293.382 1108.902 C 1291.510 1107.349, 1291.341 1062.059, 1293.200 1060.200 C 1293.940 1059.460, 1297.568 1059, 1302.657 1059 L 1310.913 1059 1307.207 1053.570 C 1303.553 1048.218, 1303.421 1048.136, 1298 1047.820 L 1292.500 1047.500 1291.956 1038 C 1291.479 1029.681, 1291.015 1027.816, 1288.224 1023 C 1285.221 1017.819, 1285.034 1017.674, 1285.003 1020.500 C 1284.962 1024.146, 1283.619 1026.501, 1282.112 1025.569 C 1281.447 1025.158, 1281 1021.692, 1281 1016.953 C 1281 1010.229, 1280.484 1007.767, 1277.608 1000.762 C 1265.979 972.439, 1259.581 943.377, 1258.162 912.439 L 1257.500 898.009 1215.286 920.755 M 405 919 C 405 924.316, 405.237 925.101, 406.750 924.810 C 408.162 924.538, 408.500 923.417, 408.500 919 C 408.500 914.583, 408.162 913.462, 406.750 913.190 C 405.237 912.899, 405 913.684, 405 919 M 909 933 L 909 939 1020.406 939 C 1128.883 939, 1131.800 938.951, 1131.322 937.123 C 1130.933 935.637, 1132.359 934.392, 1138.166 931.147 L 1145.500 927.048 1027.250 927.024 L 909 927 909 933 M 405 943 C 405 948.316, 405.237 949.101, 406.750 948.810 C 408.162 948.538, 408.500 947.417, 408.500 943 C 408.500 938.583, 408.162 937.462, 406.750 937.190 C 405.237 936.899, 405 937.684, 405 943 M 1265.516 945.500 C 1267.930 965.781, 1279.296 998.431, 1292.495 1023 C 1329.349 1091.598, 1400.088 1141.573, 1476.086 1152.700 L 1487.671 1154.396 1492.836 1150.042 C 1495.676 1147.647, 1498 1145.307, 1498 1144.843 C 1498 1144.380, 1496.370 1144, 1494.378 1144 C 1492.386 1144, 1485.974 1143.298, 1480.128 1142.440 C 1434.831 1135.792, 1392.343 1117.269, 1356 1088.326 C 1345.117 1079.659, 1325.386 1059.935, 1316.660 1049 C 1294.284 1020.959, 1277.427 987.622, 1268.371 953.500 C 1266.395 946.054, 1265.175 942.636, 1265.516 945.500 M 946.681 951.652 C 946.307 952.027, 946 954.965, 946 958.181 C 946 963.703, 946.181 964.141, 949.250 966.023 C 951.038 967.120, 966.791 976.226, 984.257 986.259 L 1016.015 1004.500 1015.757 1014 L 1015.500 1023.500 1006.250 1023.788 L 997 1024.075 997 1164.038 L 997 1304 1003.473 1304 L 1009.947 1304 1010.238 1181.750 C 1010.564 1045.393, 1010.021 1055.773, 1017.612 1040.634 C 1026.792 1022.329, 1042.417 1009.960, 1064 1003.915 C 1066.475 1003.222, 1073.450 1002.663, 1079.500 1002.673 C 1098.940 1002.706, 1113.917 1008.886, 1127.513 1022.485 C 1139.790 1034.766, 1145.842 1046.869, 1148.021 1063.500 C 1148.530 1067.388, 1148.952 1122.426, 1148.969 1187.286 L 1149 1304.072 1158.750 1303.786 L 1168.500 1303.500 1168.500 1127.500 L 1168.500 951.500 1057.931 951.235 C 997.119 951.090, 947.056 951.277, 946.681 951.652 M 1328.047 958.683 C 1327.976 960.486, 1335.720 981.120, 1336.917 982.317 C 1339.369 984.769, 1338.787 981.790, 1335.372 974.404 C 1333.362 970.057, 1330.902 964.475, 1329.905 962 C 1328.909 959.525, 1328.073 958.033, 1328.047 958.683 M 1762.054 968.244 C 1757.105 984.884, 1744.167 1011.420, 1732.300 1029.273 C 1712.624 1058.876, 1689.565 1082.052, 1660.366 1101.573 C 1628.498 1122.879, 1595.717 1135.724, 1557.163 1142.013 L 1549.827 1143.210 1552.301 1145.855 C 1553.662 1147.310, 1555.081 1149.513, 1555.455 1150.750 C 1555.829 1151.987, 1556.547 1153, 1557.051 1153 C 1557.556 1153, 1563.263 1151.877, 1569.734 1150.505 C 1619.619 1139.926, 1663.252 1115.881, 1699.719 1078.871 C 1727.993 1050.178, 1749.654 1013.642, 1760.918 975.650 C 1762.687 969.683, 1763.951 964.618, 1763.727 964.394 C 1763.504 964.170, 1762.751 965.903, 1762.054 968.244 M 1339 987.550 C 1339 989.648, 1342.368 994, 1343.992 994 C 1345.889 994, 1345.886 993.922, 1343.867 990.500 C 1342.732 988.575, 1341.172 987, 1340.401 987 C 1339.631 987, 1339 987.247, 1339 987.550 M 1347.854 990.250 C 1349.738 993.235, 1350.419 993.541, 1356.203 994 L 1362.500 994.500 1363 1004.067 L 1363.500 1013.633 1368.750 1019.516 L 1374 1025.399 1374 1010.822 C 1374 999.706, 1374.325 995.975, 1375.369 995.109 C 1376.345 994.299, 1386.447 994.049, 1410.619 994.237 L 1444.500 994.500 1444.500 1021 L 1444.500 1047.500 1421.631 1047.769 L 1398.762 1048.038 1403.131 1051.304 C 1413.026 1058.700, 1412.215 1058.459, 1429 1059 L 1444.500 1059.500 1445 1067.404 L 1445.500 1075.308 1449.250 1076.601 L 1453 1077.895 1453 1032.448 L 1453 987 1399.402 987 L 1345.804 987 1347.854 990.250 M 353 1014 L 353 1020 378.948 1020 L 404.895 1020 405.198 1014.750 C 405.420 1010.884, 405.896 1009.500, 407 1009.500 C 408.104 1009.500, 408.580 1010.884, 408.802 1014.750 L 409.105 1020 710.552 1020 L 1012 1020 1012 1014 L 1012 1008 682.500 1008 L 353 1008 353 1014 M 372 1170 L 372 1304.050 388.241 1303.775 L 404.482 1303.500 405.001 1300.500 C 405.719 1296.345, 408.408 1296.541, 408.815 1300.778 L 409.131 1304.056 422.815 1303.778 L 436.500 1303.500 436.754 1174.057 C 436.954 1072.025, 437.271 1044.446, 438.254 1043.822 C 439.695 1042.907, 924.038 1042.694, 926.418 1043.607 C 927.849 1044.156, 928 1056.584, 928 1174.107 L 928 1304 960.504 1304 L 993.007 1304 992.754 1170.250 L 992.500 1036.500 700.808 1036.248 L 409.115 1035.997 408.808 1040.248 C 408.393 1045.982, 405.707 1046.160, 405 1040.500 L 404.500 1036.500 388.250 1036.225 L 372 1035.950 372 1170 M 1281.504 1038.137 C 1281.218 1038.887, 1281.101 1084.725, 1281.242 1140 L 1281.500 1240.500 1367.891 1240.756 C 1431.648 1240.944, 1454.643 1240.711, 1455.661 1239.866 C 1456.766 1238.949, 1456.987 1234.815, 1456.771 1219.123 C 1456.527 1201.477, 1456.328 1199.493, 1454.772 1199.194 C 1453.192 1198.890, 1453.021 1200.472, 1452.772 1217.681 L 1452.500 1236.500 1368.750 1236.756 L 1285 1237.011 1285 1138.128 C 1285 1051.801, 1284.811 1039.088, 1283.512 1038.010 C 1282.321 1037.022, 1281.920 1037.047, 1281.504 1038.137 M 405.437 1058.302 C 404.312 1061.236, 405.425 1068.500, 407 1068.500 C 408.946 1068.500, 409.182 1057.894, 407.251 1057.250 C 406.563 1057.021, 405.747 1057.495, 405.437 1058.302 M 458.443 1069.288 C 458.171 1069.997, 458.073 1077.985, 458.224 1087.038 L 458.500 1103.500 476.250 1103.773 L 494 1104.046 494 1086.023 L 494 1068 476.469 1068 C 463.087 1068, 458.820 1068.305, 458.443 1069.288 M 518 1086 L 518 1104 535.500 1104 L 553 1104 553 1086 L 553 1068 535.500 1068 L 518 1068 518 1086 M 577 1086 L 577 1104.046 594.750 1103.773 L 612.500 1103.500 612.500 1086 L 612.500 1068.500 594.750 1068.227 L 577 1067.954 577 1086 M 636 1086 L 636 1104 654 1104 L 672 1104 672 1086 L 672 1068 654 1068 L 636 1068 636 1086 M 695 1086 L 695 1104 713 1104 L 731 1104 731 1086 L 731 1068 713 1068 L 695 1068 695 1086 M 754.443 1069.288 C 754.171 1069.997, 754.073 1077.985, 754.224 1087.038 L 754.500 1103.500 772.250 1103.773 L 790 1104.046 790 1086.023 L 790 1068 772.469 1068 C 759.087 1068, 754.820 1068.305, 754.443 1069.288 M 814 1086 L 814 1104 831.500 1104 L 849 1104 849 1086 L 849 1068 831.500 1068 L 814 1068 814 1086 M 873 1086 L 873 1104 890.500 1104 L 908 1104 908 1086 L 908 1068 890.500 1068 L 873 1068 873 1086 M 405.437 1082.302 C 404.312 1085.236, 405.425 1092.500, 407 1092.500 C 408.946 1092.500, 409.182 1081.894, 407.251 1081.250 C 406.563 1081.021, 405.747 1081.495, 405.437 1082.302 M 1037.460 1085.250 C 1037.198 1085.938, 1037.100 1122.725, 1037.242 1167 C 1037.469 1237.774, 1037.681 1247.500, 1039 1247.500 C 1040.319 1247.500, 1040.531 1237.857, 1040.756 1167.737 L 1041.012 1087.974 1075.256 1088.237 L 1109.500 1088.500 1109.754 1197.822 C 1109.995 1301.217, 1110.104 1307.127, 1111.754 1306.809 C 1113.400 1306.492, 1113.516 1300.257, 1113.774 1197.486 C 1113.925 1137.544, 1113.804 1087.487, 1113.505 1086.250 L 1112.962 1084 1075.450 1084 C 1046.361 1084, 1037.830 1084.281, 1037.460 1085.250 M 405.437 1106.302 C 404.312 1109.236, 405.425 1116.500, 407 1116.500 C 408.946 1116.500, 409.182 1105.894, 407.251 1105.250 C 406.563 1105.021, 405.747 1105.495, 405.437 1106.302 M 1292.455 1122.258 C 1292.184 1122.964, 1292.083 1134.107, 1292.231 1147.021 L 1292.500 1170.500 1327.767 1170.763 L 1363.035 1171.026 1362.767 1146.263 L 1362.500 1121.500 1327.724 1121.237 C 1300.147 1121.028, 1292.845 1121.240, 1292.455 1122.258 M 458.443 1127.288 C 458.171 1127.997, 458.073 1135.985, 458.224 1145.038 L 458.500 1161.500 476.250 1161.773 L 494 1162.046 494 1144.023 L 494 1126 476.469 1126 C 463.087 1126, 458.820 1126.305, 458.443 1127.288 M 518 1144 L 518 1162 535.500 1162 L 553 1162 553 1144 L 553 1126 535.500 1126 L 518 1126 518 1144 M 577 1144 L 577 1162.046 594.750 1161.773 L 612.500 1161.500 612.500 1144 L 612.500 1126.500 594.750 1126.227 L 577 1125.954 577 1144 M 636 1144 L 636 1162 654 1162 L 672 1162 672 1144 L 672 1126 654 1126 L 636 1126 636 1144 M 695 1144 L 695 1162 713 1162 L 731 1162 731 1144 L 731 1126 713 1126 L 695 1126 695 1144 M 754.443 1127.288 C 754.171 1127.997, 754.073 1135.985, 754.224 1145.038 L 754.500 1161.500 772.250 1161.773 L 790 1162.046 790 1144.023 L 790 1126 772.469 1126 C 759.087 1126, 754.820 1126.305, 754.443 1127.288 M 814 1144 L 814 1162 831.500 1162 L 849 1162 849 1144 L 849 1126 831.500 1126 L 814 1126 814 1144 M 873 1144 L 873 1162 890.500 1162 L 908 1162 908 1144 L 908 1126 890.500 1126 L 873 1126 873 1144 M 405.437 1130.302 C 404.312 1133.236, 405.425 1140.500, 407 1140.500 C 408.946 1140.500, 409.182 1129.894, 407.251 1129.250 C 406.563 1129.021, 405.747 1129.495, 405.437 1130.302 M 405.437 1154.302 C 404.312 1157.236, 405.425 1164.500, 407 1164.500 C 408.946 1164.500, 409.182 1153.894, 407.251 1153.250 C 406.563 1153.021, 405.747 1153.495, 405.437 1154.302 M 1561.112 1156.081 C 1558.698 1156.555, 1556.547 1157.120, 1556.330 1157.337 C 1556.113 1157.553, 1556.249 1188.409, 1556.631 1225.904 L 1557.325 1294.078 1562.163 1296.393 L 1567 1298.708 1567 1226.854 C 1567 1187.334, 1566.662 1155.049, 1566.250 1155.110 C 1565.838 1155.170, 1563.525 1155.607, 1561.112 1156.081 M 1491.003 1209.250 C 1491.007 1273.552, 1491.708 1294, 1493.907 1294.001 C 1495.338 1294.001, 1495.478 1290.419, 1495.284 1258.751 C 1494.872 1191.565, 1493.926 1159, 1492.385 1159 C 1491.223 1159, 1491 1167.111, 1491.003 1209.250 M 405.437 1178.302 C 404.312 1181.236, 405.425 1188.500, 407 1188.500 C 408.946 1188.500, 409.182 1177.894, 407.251 1177.250 C 406.563 1177.021, 405.747 1177.495, 405.437 1178.302 M 1292.453 1184.262 C 1292.181 1184.970, 1292.081 1195.213, 1292.229 1207.025 L 1292.500 1228.500 1327.769 1228.763 L 1363.038 1229.026 1362.769 1206.263 L 1362.500 1183.500 1327.724 1183.237 C 1300.091 1183.028, 1292.846 1183.239, 1292.453 1184.262 M 1374.486 1185.250 C 1374.182 1186.487, 1374.061 1196.725, 1374.217 1208 L 1374.500 1228.500 1409.750 1228.763 L 1445 1229.026 1445 1206.013 L 1445 1183 1410.019 1183 L 1375.038 1183 1374.486 1185.250 M 458.667 1184.667 C 458.300 1185.033, 458 1193.133, 458 1202.667 L 458 1220 476 1220 L 494 1220 494 1202 L 494 1184 476.667 1184 C 467.133 1184, 459.033 1184.300, 458.667 1184.667 M 518 1202 L 518 1220 535.500 1220 L 553 1220 553 1202 L 553 1184 535.500 1184 L 518 1184 518 1202 M 577 1201.977 L 577 1220 595.023 1220 L 613.046 1220 612.773 1202.250 L 612.500 1184.500 594.750 1184.227 L 577 1183.954 577 1201.977 M 636 1201.977 L 636 1220 654.023 1220 L 672.046 1220 671.773 1202.250 L 671.500 1184.500 653.750 1184.227 L 636 1183.954 636 1201.977 M 695.689 1184.644 C 695.310 1185.023, 695 1193.133, 695 1202.667 L 695 1220 713.023 1220 L 731.046 1220 730.773 1202.250 L 730.500 1184.500 713.439 1184.227 C 704.056 1184.077, 696.069 1184.265, 695.689 1184.644 M 754.667 1184.667 C 754.300 1185.033, 754 1193.133, 754 1202.667 L 754 1220 772 1220 L 790 1220 790 1202 L 790 1184 772.667 1184 C 763.133 1184, 755.033 1184.300, 754.667 1184.667 M 814 1202 L 814 1220 831.500 1220 L 849 1220 849 1202 L 849 1184 831.500 1184 L 814 1184 814 1202 M 873 1202 L 873 1220 890.500 1220 L 908 1220 908 1202 L 908 1184 890.500 1184 L 873 1184 873 1202 M 405.437 1202.302 C 404.312 1205.236, 405.425 1212.500, 407 1212.500 C 408.946 1212.500, 409.182 1201.894, 407.251 1201.250 C 406.563 1201.021, 405.747 1201.495, 405.437 1202.302 M 405.437 1226.302 C 404.312 1229.236, 405.425 1236.500, 407 1236.500 C 408.946 1236.500, 409.182 1225.894, 407.251 1225.250 C 406.563 1225.021, 405.747 1225.495, 405.437 1226.302 M 458.667 1242.667 C 458.300 1243.033, 458 1251.133, 458 1260.667 L 458 1278 476 1278 L 494 1278 494 1260 L 494 1242 476.667 1242 C 467.133 1242, 459.033 1242.300, 458.667 1242.667 M 518 1260 L 518 1278 535.500 1278 L 553 1278 553 1260 L 553 1242 535.500 1242 L 518 1242 518 1260 M 577 1259.977 L 577 1278 595.023 1278 L 613.046 1278 612.773 1260.250 L 612.500 1242.500 594.750 1242.227 L 577 1241.954 577 1259.977 M 636 1259.977 L 636 1278 654.023 1278 L 672.046 1278 671.773 1260.250 L 671.500 1242.500 653.750 1242.227 L 636 1241.954 636 1259.977 M 695.689 1242.644 C 695.310 1243.023, 695 1251.133, 695 1260.667 L 695 1278 713.023 1278 L 731.046 1278 730.773 1260.250 L 730.500 1242.500 713.439 1242.227 C 704.056 1242.077, 696.069 1242.265, 695.689 1242.644 M 754.667 1242.667 C 754.300 1243.033, 754 1251.133, 754 1260.667 L 754 1278 772 1278 L 790 1278 790 1260 L 790 1242 772.667 1242 C 763.133 1242, 755.033 1242.300, 754.667 1242.667 M 814 1260 L 814 1278 831.500 1278 L 849 1278 849 1260 L 849 1242 831.500 1242 L 814 1242 814 1260 M 873 1260 L 873 1278 890.500 1278 L 908 1278 908 1260 L 908 1242 890.500 1242 L 873 1242 873 1260 M 405.437 1250.302 C 404.312 1253.236, 405.425 1260.500, 407 1260.500 C 408.946 1260.500, 409.182 1249.894, 407.251 1249.250 C 406.563 1249.021, 405.747 1249.495, 405.437 1250.302 M 405.437 1274.302 C 404.312 1277.236, 405.425 1284.500, 407 1284.500 C 408.946 1284.500, 409.182 1273.894, 407.251 1273.250 C 406.563 1273.021, 405.747 1273.495, 405.437 1274.302 M 405 1327 C 405 1332.316, 405.237 1333.101, 406.750 1332.810 C 408.162 1332.538, 408.500 1331.417, 408.500 1327 C 408.500 1322.583, 408.162 1321.462, 406.750 1321.190 C 405.237 1320.899, 405 1321.684, 405 1327 M 405 1351 C 405 1356.316, 405.237 1357.101, 406.750 1356.810 C 408.162 1356.538, 408.500 1355.417, 408.500 1351 C 408.500 1346.583, 408.162 1345.462, 406.750 1345.190 C 405.237 1344.899, 405 1345.684, 405 1351 M 1039.500 1458 C 1038.255 1460.015, 1040.245 1461, 1045.559 1461 C 1050.333 1461, 1051 1460.755, 1051 1459 C 1051 1457.245, 1050.333 1457, 1045.559 1457 C 1042.566 1457, 1039.840 1457.450, 1039.500 1458 M 1063.500 1458 C 1062.255 1460.015, 1064.245 1461, 1069.559 1461 C 1074.333 1461, 1075 1460.755, 1075 1459 C 1075 1457.245, 1074.333 1457, 1069.559 1457 C 1066.566 1457, 1063.840 1457.450, 1063.500 1458 M 1087.500 1458 C 1086.255 1460.015, 1088.245 1461, 1093.559 1461 C 1098.333 1461, 1099 1460.755, 1099 1459 C 1099 1457.245, 1098.333 1457, 1093.559 1457 C 1090.566 1457, 1087.840 1457.450, 1087.500 1458 M 1111.500 1458 C 1110.255 1460.015, 1112.245 1461, 1117.559 1461 C 1122.333 1461, 1123 1460.755, 1123 1459 C 1123 1457.245, 1122.333 1457, 1117.559 1457 C 1114.566 1457, 1111.840 1457.450, 1111.500 1458 M 1135.500 1458 C 1134.255 1460.015, 1136.245 1461, 1141.559 1461 C 1146.333 1461, 1147 1460.755, 1147 1459 C 1147 1457.245, 1146.333 1457, 1141.559 1457 C 1138.566 1457, 1135.840 1457.450, 1135.500 1458 M 1159.500 1458 C 1158.255 1460.015, 1160.245 1461, 1165.559 1461 C 1170.333 1461, 1171 1460.755, 1171 1459 C 1171 1457.245, 1170.333 1457, 1165.559 1457 C 1162.566 1457, 1159.840 1457.450, 1159.500 1458 M 1183.500 1458 C 1182.255 1460.015, 1184.245 1461, 1189.559 1461 C 1194.333 1461, 1195 1460.755, 1195 1459 C 1195 1457.245, 1194.333 1457, 1189.559 1457 C 1186.566 1457, 1183.840 1457.450, 1183.500 1458 M 1207.500 1458 C 1206.255 1460.015, 1208.245 1461, 1213.559 1461 C 1218.333 1461, 1219 1460.755, 1219 1459 C 1219 1457.245, 1218.333 1457, 1213.559 1457 C 1210.566 1457, 1207.840 1457.450, 1207.500 1458 M 1287 1459 C 1287 1460.924, 1287.480 1461.075, 1292.750 1460.800 C 1297.061 1460.575, 1298.500 1460.125, 1298.500 1459 C 1298.500 1457.875, 1297.061 1457.425, 1292.750 1457.200 C 1287.480 1456.925, 1287 1457.076, 1287 1459 M 1311 1459 C 1311 1460.924, 1311.480 1461.075, 1316.750 1460.800 C 1321.061 1460.575, 1322.500 1460.125, 1322.500 1459 C 1322.500 1457.875, 1321.061 1457.425, 1316.750 1457.200 C 1311.480 1456.925, 1311 1457.076, 1311 1459 M 1335 1459 C 1335 1460.924, 1335.480 1461.075, 1340.750 1460.800 C 1345.061 1460.575, 1346.500 1460.125, 1346.500 1459 C 1346.500 1457.875, 1345.061 1457.425, 1340.750 1457.200 C 1335.480 1456.925, 1335 1457.076, 1335 1459 M 1359 1459 C 1359 1460.924, 1359.480 1461.075, 1364.750 1460.800 C 1369.061 1460.575, 1370.500 1460.125, 1370.500 1459 C 1370.500 1457.875, 1369.061 1457.425, 1364.750 1457.200 C 1359.480 1456.925, 1359 1457.076, 1359 1459" stroke="none" fill="#c8d9fa" fill-rule="evenodd"/></svg>