<svg width="13" height="13" viewBox="0 0 13 13" fill="none" xmlns="http://www.w3.org/2000/svg">
  <path
    d="M10.6667 3.66671V5.66004C10.6667 5.66004 9.34 5.66671 9.33333 5.66004V3.66671H7.33333C7.33333 3.66671 7.34 2.34004 7.33333 2.33337H9.33333V0.333374H10.6667V2.33337H12.6667V3.66671H10.6667ZM8.66667 6.33337V4.33337H6.66667V2.33337H1.33333C0.6 2.33337 0 2.93337 0 3.66671V11.6667C0 12.4 0.6 13 1.33333 13H9.33333C10.0667 13 10.6667 12.4 10.6667 11.6667V6.33337H8.66667ZM1.33333 11.6667L3.33333 9.00004L4.66667 11L6.66667 8.33337L9.33333 11.6667H1.33333Z"
    fill="#0779B8" />
</svg>
  