<svg width="24" height="24" viewBox="0 0 24 24" fill="none" xmlns="http://www.w3.org/2000/svg">
<path d="M2.39844 7.2C2.39844 5.87452 3.47295 4.8 4.79844 4.8H11.9984C13.3239 4.8 14.3984 5.87452 14.3984 7.2V16.8C14.3984 18.1255 13.3239 19.2 11.9984 19.2H4.79844C3.47295 19.2 2.39844 18.1255 2.39844 16.8V7.2Z" fill="#757575"/>
<path d="M17.4618 8.52669C17.0552 8.72996 16.7984 9.14547 16.7984 9.6V14.4C16.7984 14.8545 17.0552 15.27 17.4618 15.4733L19.8618 16.6733C20.2338 16.8593 20.6755 16.8394 21.0293 16.6208C21.3831 16.4021 21.5984 16.0159 21.5984 15.6V8.4C21.5984 7.98411 21.3831 7.59787 21.0293 7.37922C20.6755 7.16057 20.2338 7.1407 19.8618 7.32669L17.4618 8.52669Z" fill="#757575"/>
</svg>
