<svg width="20" height="20" viewBox="0 0 20 20" fill="none" xmlns="http://www.w3.org/2000/svg">
<path d="M9.37341 20C9.79095 20 10.2085 20 10.626 20C10.9653 19.953 11.3097 19.9217 11.649 19.8643C13.5488 19.5407 15.2241 18.737 16.6542 17.453C18.3661 15.9134 19.436 14.0136 19.8484 11.7432C19.9162 11.3727 19.9527 10.9969 20.0049 10.6263C20.0049 10.2088 20.0049 9.79123 20.0049 9.3737C19.9945 9.33194 19.9788 9.28497 19.9736 9.24321C19.8275 7.35386 19.2064 5.63153 18.0738 4.11796C16.1532 1.55532 13.5801 0.151358 10.3755 0.0104389C7.92769 -0.0991644 5.71997 0.631523 3.80974 2.16597C1.35149 4.14405 0.0675684 6.72756 -0.000281306 9.88518C-0.042035 11.9415 0.521639 13.8361 1.6803 15.5376C3.2826 17.8862 5.4851 19.3424 8.29304 19.8486C8.64794 19.9113 9.01329 19.9478 9.37341 20ZM5.12498 14.1388C4.20118 14.1388 3.24607 14.1388 2.29095 14.1336C2.24398 14.1336 2.17091 14.0658 2.14481 14.0136C1.92039 13.4551 1.6803 12.9019 1.48719 12.3278C1.30452 11.7745 1.22101 11.1952 1.19492 10.595C2.37968 10.595 3.54356 10.595 4.67613 10.595C4.82227 11.7797 4.97362 12.9489 5.12498 14.1388ZM14.8692 14.1388C15.0206 12.9541 15.1667 11.7797 15.3181 10.595C16.4559 10.595 17.6198 10.595 18.7941 10.595C18.7941 10.6367 18.7941 10.6576 18.7941 10.6837C18.7106 11.8685 18.387 12.9802 17.839 14.0344C17.8129 14.0866 17.7189 14.1284 17.6615 14.1336C17.1918 14.1441 16.7273 14.1388 16.2575 14.1388C15.7826 14.1388 15.3077 14.1388 14.8692 14.1388ZM5.8922 10.6002C7.08218 10.6002 8.24085 10.6002 9.39951 10.6002C9.39951 11.785 9.39951 12.9593 9.39951 14.1441C8.42352 14.1441 7.46318 14.144 6.49763 14.1388C6.45066 14.1388 6.37237 14.0553 6.36193 14.0031C6.24189 13.3664 6.11141 12.7296 6.01746 12.0877C5.94961 11.5919 5.93396 11.096 5.8922 10.6002ZM10.5947 14.1388C10.5947 12.9436 10.5947 11.7693 10.5947 10.595C11.7638 10.595 12.9173 10.595 14.0916 10.595C14.0655 10.9603 14.0655 11.3205 14.0133 11.6701C13.8985 12.453 13.7628 13.2359 13.6218 14.0136C13.6114 14.0605 13.5279 14.1336 13.4757 14.1336C12.5258 14.1441 11.5707 14.1388 10.5947 14.1388ZM1.20014 9.40501C1.20014 9.35804 1.20014 9.33194 1.20014 9.30585C1.28364 8.14196 1.5968 7.04593 2.12915 6.00731C2.16047 5.9499 2.27007 5.8977 2.34314 5.8977C2.97467 5.88726 3.60619 5.89249 4.23771 5.89249C4.54043 5.89249 4.84836 5.89249 5.11976 5.89249C4.97362 7.06681 4.82748 8.23069 4.68135 9.39979C3.54356 9.40501 2.37968 9.40501 1.20014 9.40501ZM14.8797 5.8977C15.8087 5.8977 16.7586 5.8977 17.7033 5.90292C17.7659 5.90292 17.8494 5.97599 17.8807 6.03862C18.1939 6.65971 18.4496 7.30689 18.5905 7.99061C18.6845 8.4499 18.7523 8.91962 18.8306 9.39979C17.6093 9.39979 16.4454 9.39979 15.3181 9.39979C15.172 8.23069 15.0258 7.07202 14.8797 5.8977ZM9.39951 5.90292C9.39951 7.07724 9.39951 8.23591 9.39951 9.39979C8.23041 9.39979 7.07696 9.39979 5.90786 9.39979C5.94961 8.20981 6.09053 7.05115 6.38281 5.90292C7.39012 5.90292 8.38698 5.90292 9.39951 5.90292ZM10.5947 9.40501C10.5947 8.22547 10.5947 7.06681 10.5947 5.90814C11.6072 5.90814 12.6093 5.90814 13.6114 5.90814C13.8985 7.06159 14.0498 8.22025 14.0811 9.40501C12.912 9.40501 11.7638 9.40501 10.5947 9.40501ZM6.73771 4.71816C6.80034 4.56159 6.85254 4.41545 6.90995 4.27453C7.28573 3.38205 7.73458 2.53653 8.45483 1.86326C8.72623 1.61273 9.02895 1.39875 9.39429 1.28392C9.39429 2.43737 9.39429 3.58038 9.39429 4.71816C8.50702 4.71816 7.63542 4.71816 6.73771 4.71816ZM10.5895 1.29958C11.5185 1.47704 13.0321 3.43946 13.2252 4.71816C12.3484 4.71816 11.4715 4.71816 10.5895 4.71816C10.5895 3.56994 10.5895 2.43215 10.5895 1.29958ZM6.76381 15.3132C7.21266 15.3132 7.65108 15.3132 8.08427 15.3132C8.52268 15.3132 8.9611 15.3132 9.39951 15.3132C9.39951 16.4614 9.39951 17.5835 9.39951 18.7056C8.3922 18.4342 7.32748 16.9885 6.76381 15.3132ZM13.2878 15.3184C13.006 15.8873 12.7607 16.4248 12.4788 16.9363C12.1709 17.4896 11.7795 17.9854 11.2575 18.3612C11.0592 18.5021 10.8348 18.6117 10.5947 18.7474C10.5947 17.5678 10.5947 16.4457 10.5947 15.3132C11.4768 15.3184 12.3484 15.3184 13.2878 15.3184ZM13.0269 1.72756C14.6605 2.32255 15.9966 3.3142 17.0717 4.72338C16.2158 4.72338 15.4016 4.72338 14.5926 4.71816C14.5456 4.71816 14.4778 4.66075 14.4621 4.61378C14.1177 3.59082 13.6636 2.61482 13.0269 1.72756ZM6.96736 1.72756C6.33584 2.6096 5.87655 3.57516 5.54252 4.59812C5.50598 4.71294 5.44335 4.72338 5.34419 4.72338C4.58218 4.71816 3.82018 4.72338 3.06339 4.72338C3.02686 4.72338 2.99554 4.71816 2.93291 4.70772C4.00285 3.30898 5.33375 2.31733 6.96736 1.72756ZM13.0112 18.2985C13.0216 18.2568 13.0216 18.2411 13.0321 18.2359C13.6584 17.3852 14.102 16.4405 14.436 15.4436C14.4726 15.3288 14.5352 15.3132 14.6344 15.3132C15.3755 15.3184 16.1166 15.3132 16.863 15.3132C16.9099 15.3132 16.9569 15.3184 17.0352 15.3236C15.9653 16.7067 14.6396 17.6879 13.0112 18.2985ZM2.94857 15.3132C3.05295 15.3132 3.10515 15.3132 3.16256 15.3132C3.87759 15.3132 4.59262 15.3184 5.30765 15.3079C5.46945 15.3079 5.53208 15.3601 5.57905 15.5063C5.90264 16.4718 6.33584 17.3852 6.94648 18.2098C6.95692 18.2255 6.96736 18.2463 6.99346 18.3038C5.34941 17.6879 4.02895 16.7067 2.94857 15.3132Z" fill="#5B5B5B"/>
</svg>
